<?xml version="1.0" standalone="no"?>
<!DOCTYPE svg PUBLIC "-//W3C//DTD SVG 1.1//EN" "http://www.w3.org/Graphics/SVG/1.1/DTD/svg11.dtd" >
<svg xmlns="http://www.w3.org/2000/svg">
<metadata></metadata>
<defs>
<font id="yonderregular" horiz-adv-x="813" >
<font-face units-per-em="2048" ascent="1638" descent="-410" />
<missing-glyph horiz-adv-x="358" />
<glyph horiz-adv-x="0" />
<glyph horiz-adv-x="682" />
<glyph unicode=" "  horiz-adv-x="358" />
<glyph unicode="&#x09;" horiz-adv-x="358" />
<glyph unicode="&#xa0;" horiz-adv-x="358" />
<glyph unicode="!" horiz-adv-x="307" d="M0 100q2 -34 11.5 -57.5t35.5 -40.5q4 0 8 -4q37 -22 60 -18q6 0 10 2h2l2 2q27 3 45 12q26 10 29 33q5 15 -2 39l-2 20q-6 52 -74 72q-36 12 -62 6q-16 -4 -22 -8q-14 -8 -27.5 -26.5t-13.5 -31.5zM8 973q-12 -38 2.5 -120t14.5 -103q0 -38 6.5 -107t7.5 -100 q0 -17 -2 -74t0 -94.5t10 -73.5q17 -63 57 -45q33 18 48 70q5 25 5.5 54.5t-1 65t-0.5 56.5q1 30 3 106.5t4.5 131t6.5 106.5q0 6 3 28t3.5 33t0 29.5t-4.5 32.5t-12 26q-31 45 -84 36.5t-68 -58.5z" />
<glyph unicode="#" horiz-adv-x="1030" d="M0 297q0 -16 8 -27q6 -8 27 -12h55h37h2q32 0 45 -16q13 -15 6 -49l-6 -21q-9 -38 -20 -72v-16q0 -27 -4 -35q-10 -21 14 -45q14 -14 20 -14q3 0 11 4t12 4t16 -4h6h2q18 3 26 13.5t13 31.5q4 16 10.5 61t16.5 68q6 9 6 27q1 26 11 41.5t31 20.5t38 5.5t45 -2t39 -2.5 q23 0 43 -20q9 -9 2 -31l-2 -4q-1 -3 -2 -8t-2 -7v-2q-3 -6 0 -12q0 -20 -2 -24q-17 -37 -21 -101q0 -25 7 -35.5t30 -17.5q6 -2 21 -2q21 0 37 9.5t25 28.5t15 36t8 45t2.5 42t0.5 38v4.5v3.5q0 22 14.5 38t36.5 17h20q6 0 18.5 1t18.5 1q25 0 49 -6h11q39 0 51 39 q2 6 2 22v13q0 12 -8 20t-21 8q-16 0 -26 0.5t-24.5 1.5t-23.5 3t-20.5 5t-18 7.5t-14.5 10.5t-11.5 14.5t-6.5 19t-3 24t3 29.5q0 2 5 29t9 46t10.5 44.5t13.5 40t15 16.5q41 12 76 12q24 0 45 -6q3 0 9 -1t9 -1q40 0 55.5 34t-16.5 60q-10 8 -27 11.5t-30.5 3.5t-35 -1 t-28.5 -1q-37 0 -41 41q0 16 7 37l2 14q1 2 2 6t2 6q8 56 18 84q9 19 -2 45v2q-6 22 -20 25q-20 4 -31 4q-39 0 -57.5 -27t-21 -65.5t-3.5 -77t-14.5 -65.5t-44.5 -27h-2h-13q-12 0 -39 -2t-39.5 -1t-30 6t-26.5 19.5t-12 38.5q-4 29 11.5 86t14.5 82q0 9 -8 17t-18 8 q-4 2 -12 2h-13h-10h-2h-23h-16q-8 0 -8 -4l-6 -17q-4 -12 -4 -16q-4 -18 -8 -65.5t-13 -84t-29 -57.5q-16 -16 -51.5 -18t-66.5 1.5t-54.5 -7.5t-21.5 -44v-6q0 -24 8 -30q30 -17 43 -17q6 0 8 2q50 7 79 -7t36 -58q4 -24 -16.5 -74.5t-16.5 -69.5v-2q2 0 2 -6 q3 -25 -9 -46t-34 -28q-10 -4 -30 -4h-9h-24h-13q-2 0 -5 -1t-5 -1q-8 -4 -16 -4q-9 0 -17 4q-4 4 -18 4q-24 0 -29 -8q-16 -14 -16 -49v-4zM336 397v2q0 7 2 11q9 35 20 102l13 63q1 3 2 8.5t2 8.5t2 9.5t2 10.5q4 21 15.5 29.5t33.5 11.5q34 6 64 6h10h12h37h2 q17 0 33 -20q9 -12 4 -21l-4 -22q0 -23 -8 -39q-9 -15 -9 -37q-2 -20 -10 -51q-8 -40 -8 -57q0 -19 -14 -33q-25 -25 -56 -25h-6q-36 4 -59 4t-33 -2h-4q-20 0 -33 13q-10 10 -10 28z" />
<glyph unicode="$" horiz-adv-x="628" d="M2 276q-8 -29 9 -80t38 -81q10 -13 49 -32.5t69.5 -39t29.5 -39.5q-2 -19 6 -55v-4q6 -26 20 -29q20 -7 31 -4q27 4 29 39q0 10 -2 14v23q5 34 13.5 45t39.5 20q120 31 162.5 133t-19.5 209q-13 21 -57 64t-76.5 83t-30.5 70q2 20 2 64q-2 10 2 31q7 21 7 32q0 80 12 121 q0 6 8 10q9 0 12 -6q5 -11 17.5 -53t27 -71.5t31.5 -37.5q47 -23 74 14.5t20 82.5q-8 47 -33.5 94t-60.5 72q-15 10 -37 20.5t-32.5 17t-18 23t-6.5 43.5q2 28 -2.5 33.5t-32.5 13.5q-1 0 -3 1t-3 1l-18 -2q-29 -11 -23 -39v-26q0 -3 -1 -8t-1 -7q0 -12 -9 -22t-22 -13 q-20 -4 -51 -24q-78 -46 -111.5 -105t-17.5 -145q7 -36 39 -78.5t65 -74t57 -72t19 -74.5q-1 -7 -2 -22t-2 -23q0 -31 -2 -45q-4 -25 -4 -72q0 -39 -2 -57q0 -5 -6 -23q0 -1 -1 -2t-1 -2q-5 -8 -13 -8q-8 -2 -18 8q-19 19 -32.5 80.5t-39.5 73.5q-28 13 -59 -8.5t-39 -51.5z M182 723q-7 31 8 82q2 12 21 26q0 1 4 5q8 4 10 4q6 3 13 -4q6 -4 6 -19q-1 -24 -4 -65t-4 -54q0 -22 -19 -26h-2q-18 0 -20 18v2q-2 2 -5 8q-8 8 -8 23zM299 207q-2 11 2 33q2 10 2 26q0 6 1 18.5t1 18.5v55v4q0 22 14 25l3 2q16 0 22 -20v-2q1 -4 10 -17q13 -17 13 -31 q3 -64 -13 -96q-6 -12 -16 -22q-4 -2 -10 -8q-3 -6 -13 -9q-8 0 -10 4q-11 6 -6 19z" />
<glyph unicode="&#x26;" horiz-adv-x="927" d="M0 291q1 -15 4 -31t7.5 -35.5t6.5 -29.5v-5q5 -10 14 -30.5t17.5 -36t18.5 -27.5q1 -1 12.5 -14.5t16 -18t15 -12.5t19.5 -12q2 -1 21.5 -11t22.5 -11.5l20 -10t22 -10t20 -7.5t23 -7t21.5 -4t25.5 -4t25 -1q120 0 217 76.5t117 194.5q0 3 2 10t2 10q-1 15 5.5 44t6.5 42 q0 29 4 37q5 7 0 21q-8 29 10 52t54 45t47 34q63 63 63 161q3 24 -13 52.5t-38 27.5q-12 -1 -25 -8.5t-31 -24t-20 -18.5q-14 -11 -18.5 -39t-12.5 -39q-20 -34 -77 -55q-9 -3 -25 -13.5t-25 -13.5q-16 -8 -28 -8l-8 -2q-11 -6 -62 -31.5t-76 -42.5q-1 -1 -4 -3.5t-5 -4.5 t-3 -4q-10 -16 -39 -41q-6 -4 -11.5 -15.5t-8.5 -15.5q-22 -40 -25 -79q0 -7 -2 -19.5t-2.5 -21t0.5 -18t7 -16t18 -9.5q18 -2 24.5 -1.5t24.5 7.5t24 8q12 4 20 11t11.5 12.5t9.5 18t9 17.5q25 43 65 68q11 11 21 8q11 -5 6 -20q0 -31 -9 -58q-12 -50 -22 -73 q-12 -25 -38 -52t-52 -41q-47 -31 -98.5 -22.5t-94 37.5t-67.5 78t-19 100q1 12 5.5 23t14 26.5t11.5 20.5q20 45 61 59q13 4 44.5 8t54 11t35.5 22q16 18 28.5 49t7.5 51q-3 9 -9.5 15.5t-15.5 13t-13 10.5q-31 31 -46 94q-8 27 7 78q16 44 63 70l4 2q7 1 28 3.5t28 2 t28 -3.5q22 -8 38 -32.5t15 -47.5q0 -4 -1.5 -7t-4.5 -6t-4 -5q-3 -3 -5.5 -3t-4 1.5t-3.5 4t-3 3.5q-34 23 -80 6q-46 -19 -35 -78q6 -37 39 -60.5t70 -25.5q41 0 61 4q36 9 62 35q70 63 55 156v18q-3 72 -63.5 121t-135.5 57q-75 10 -131 -6q-107 -34 -147 -127 q-21 -53 -21 -78l-6 -35q-3 -77 29 -155q6 -17 -4.5 -26.5t-35 -17t-28.5 -9.5q-18 -11 -59 -52q-22 -27 -37.5 -61.5t-20 -52.5t-16.5 -68v-53z" />
<glyph unicode="+" horiz-adv-x="735" d="M2 424q-5 -13 2 -39q1 -2 2 -6t2 -6q0 -6 12 -13q14 -10 41 -10h13h16q12 0 16 -2q9 -1 28 -2t28 -2q29 0 45 -2q23 0 33 -14q15 -15 10 -39q-3 -65 0 -150v-4q0 -2 4 -6q7 -11 10 -25q2 0 2 -2q32 -16 66 -16q21 0 33 2q8 0 14.5 6t5.5 15q0 33 2 49v45q-4 42 0 106 q7 37 35 37q1 0 3 -1t3 -1h18q8 -2 25 -2q24 -4 41 -4h20q3 0 9.5 1t9.5 1q16 4 27 4q10 0 18 -2h8q4 2 12 2h5h2q6 0 6 4q9 56 -6 101q0 1 -1.5 2l-3 2t-2.5 2q-4 2 -24 6q-19 0 -29 4q-2 2 -10 2q-10 0 -16 -2q-8 -2 -23 -2h-8q-23 4 -68 4h-2q-31 3 -45 20q-16 19 -6 43 q4 9 4 50v36q2 10 -2 33v29q0 16 -14 33q-10 10 -23 10h-2h-6q-19 0 -29 2q-8 2 -22 2h-2q-21 0 -30.5 -7.5t-10.5 -25.5q0 -19 -1 -55t-1 -53q0 -9 -2 -13v-10q12 -24 4 -53v-8q-2 -14 -14 -24t-29 -9h-10q-21 6 -50 6q-33 0 -49 -2h-6q-8 0 -12 -2h-21h-2h-12 q-25 0 -29 -4q-7 -4 -10 -35q0 -4 -2 -6z" />
<glyph unicode="," horiz-adv-x="337" d="M2 -143q-6 -33 10 -52l13 -10q8 -4 12 -8h6q18 4 38 14t30 17.5l34 25.5q15 11 41 50q3 3 23 28q27 34 27 92q0 4 -1.5 12.5t-1.5 12.5q-4 20 -4 31q2 13 -3 25.5t-9 18.5t-16 21l-4 2q-13 16 -47 27l-5 2q-18 6 -36 6q-21 0 -41 -10q-19 -7 -26.5 -31t-2.5 -43 q0 -2 1 -6t1 -6q16 -53 33 -70q4 -4 12 -16l6 -8q9 -9 6 -23q-3 -9 -12 -12q-4 -4 -6 -10q-1 -1 -4.5 -5t-6 -6.5t-7 -5t-9.5 -2.5v-2q-2 -4 -18 -20l-8 -7q-1 -1 -3.5 -4t-3.5 -4q-18 -18 -18 -24z" />
<glyph unicode="." horiz-adv-x="301" d="M0 104q-9 -94 74 -127h12q2 -1 7.5 -2t8.5 -2q4 -2 15 -2l20 6q4 1 13.5 3.5t13.5 3.5h6l6 6q16 18 21 29.5t0 27.5q-2 4 -2 14v17q3 16 -2 24q-50 62 -113 62q-5 2 -10 0q-7 0 -27 -4l-20 -6l-3 -2l-8 -21q-9 -12 -12 -27z" />
<glyph unicode="0" horiz-adv-x="831" d="M0 494q0 -188 57 -328q57 -135 172 -162q44 -10 101 -10q7 0 23 1t24 1h2q75 1 146 49t102 117q17 45 37 125q19 73 24 86v200q-6 13 -6 60q3 122 -74 252q-86 145 -262 145h-12q-106 -3 -182 -58.5t-107 -152.5q-45 -134 -45 -325zM156 451v4q7 34 4 84v65q1 5 2 16.5 t2 16.5q3 44 6.5 71t18.5 63.5t42 64.5q53 53 107 53q46 0 86 -37q77 -66 92 -166q17 -153 6 -342q-3 -78 -61 -151q-48 -64 -119 -64q-44 0 -82.5 27t-58.5 71q-29 58 -41 185q0 15 -4 39z" />
<glyph unicode="1" horiz-adv-x="456" d="M61 901q13 -23 33 -37q48 -26 51 -90q0 -14 1 -43t1 -45q0 -87 5 -151q2 -22 -7 -76q-12 -60 -4 -86q17 -56 9 -158q-8 -87 0 -131q11 -50 29 -71t52 -21q23 0 37 4q26 6 36 32t9 87q-1 16 -2 48t-2 48q-4 122 -4 188q0 24 4 64q5 62 4 74q0 13 -1 40t-1 41q-4 58 -4 89 v100q0 96 -2 143q-3 56 -37 62q-18 2 -59 10q-36 7 -64 10l-14 2q-49 0 -70 -43v-90z" />
<glyph unicode="2" horiz-adv-x="733" d="M0 831q0 -15 31 -40q50 -41 67 -41q19 0 58 57q54 78 116 78q25 0 74 -17q53 -21 74 -81.5t0 -110.5q-18 -58 -74 -133l-88 -131q-120 -181 -182 -258l-13 -17q-42 -52 -49 -82q-9 -23 6 -45q8 -12 25 -12h4q125 8 270 8q56 0 162 -4h4q24 0 64 12q37 11 29 66 q-5 28 -13.5 40.5t-27.5 12.5q-85 3 -144 17q-47 9 -57 34q-12 23 10 62q74 119 131 200q60 81 88 143.5t23 133.5q3 72 -4 110t-27 66q-43 60 -109 94.5t-141 34.5q-91 0 -168 -49q-29 -19 -88 -78l-24 -24q-27 -27 -27 -46z" />
<glyph unicode="3" horiz-adv-x="761" d="M-1 172q-2 -30 17 -53q31 -39 70 -62q34 -20 76.5 -31.5t72 -14t84.5 -5.5h9l14 -2q95 0 172 64.5t92 156.5l4 23q10 38 9.5 84.5t-21.5 83.5q-61 104 -176 153q-48 22 -51 49q-6 27 32 62l17 10q8 4 12 8l19 15q31 24 47 37.5t38 37t33.5 48t14.5 53.5q8 82 -13 108 q-21 21 -63 21q-4 0 -15 -1t-16 -1q-32 -4 -55 -4q-33 0 -49 2h-49h-27h-41q-65 0 -100 2q-62 4 -95 4q-29 0 -41 -12t-12 -54q0 -41 12 -55t46 -16h38h175q49 0 63 -31q13 -33 -20 -66l-7 -4q-7 -10 -34 -37q-8 -9 -30.5 -32t-33.5 -37q-50 -62 -22 -137q18 -49 92 -52 q35 -2 84 -24q35 -15 69.5 -61.5t32.5 -77.5q-1 -50 -39 -101.5t-86 -70.5q-37 -13 -65 -13q-72 0 -156 76q-27 27 -55 27q-25 0 -49 -21q-22 -19 -24 -49z" />
<glyph unicode="4" horiz-adv-x="804" d="M2 231q14 -24 64 -24h55h92h68q51 -2 78.5 -26t33.5 -75q0 -10 4 -26q1 -3 2 -10.5t2 -10.5q6 -53 64 -53h6q49 3 65.5 21t16.5 45q-3 82 65 135q50 37 44 94q-6 49 -58 70q-51 22 -51 88v139v72q2 27 2 90q0 110 4 141q11 72 -29 98q-32 19 -67 19q-34 0 -63.5 -16.5 t-41.5 -43.5q-27 -52 -39 -79q-89 -183 -114 -228q-13 -22 -25.5 -47t-27.5 -55.5t-23 -46.5q-70 -152 -113 -213q-23 -41 -14 -58zM240 436q11 26 26 72q27 90 62 141q4 4 4 6q15 25 33 25h8q36 -9 39 -49l12 -101q-2 -47 -23 -129q-15 -54 -67 -57h-6q-63 0 -84 47 q-14 22 -4 45z" />
<glyph unicode="5" horiz-adv-x="751" d="M12 645q-32 -105 25 -158q37 -34 84 -34q34 0 72 20q42 25 88 25q76 0 125 -58q44 -54 38 -139q-6 -84 -61 -129q-44 -35 -94 -35q-77 0 -142 74q-22 25 -53 25q-27 0 -49 -19q-32 -32 -29 -65q3 -47 64 -86q109 -68 209 -68q20 0 30 2q111 9 197 78q44 34 69 106t24 150 t-25 133q-50 118 -178 160q-37 12 -84 12q-9 0 -28 -1t-28 -1q-14 -2 -47 -2q-32 0 -47 18q-13 13 -10 43v11q4 16 4 22q3 69 41 106.5t108 38.5q15 3 31 3h51l11 -3l47 3q6 0 19 -1.5t20 -1.5q17 0 25 10t13 34q0 4 5 14q6 21 3.5 36t-18.5 25q-62 33 -112 33q-21 0 -39 -6 q-36 -10 -90 -10q-39 0 -105 8q-28 4 -39 4q-54 0 -71 -35q-34 -61 -39 -180v-25q0 -89 -15 -137z" />
<glyph unicode="6" horiz-adv-x="817" d="M0.5 554.5q0.5 -56.5 1.5 -120.5v-31q3 -110 53 -210q41 -81 94 -131t142 -64q30 -6 59 -6q142 0 234 98q90 93 90 236q-4 24 -4 41q-8 106 -43 155q-38 53 -101.5 85t-130.5 32q-64 0 -121 -31q-12 -9 -22 -14l-31 -19q-16 -8 -31 -8q-17 0 -22 8q-13 16 -10 43 q7 62 20 115q22 71 65.5 111.5t100.5 40.5q61 0 123 -47q22 -19 57 -19q49 0 72 33q13 18 8 41q-7 44 -47 70q-68 45 -176 63q-30 6 -55 6q-85 0 -146 -49q-41 -31 -70 -74.5t-61 -111.5q-26 -55 -37.5 -120.5t-11 -122zM180 375q12 43 43.5 78.5t69.5 50.5q21 8 49 8 q54 0 104 -41q36 -31 52.5 -82t7.5 -106q-9 -49 -36.5 -83.5t-68.5 -49.5q-27 -9 -63 -9h-2q-4 -2 -14 -2q-24 0 -45.5 13t-33 26t-30.5 39q-56 70 -33 158z" />
<glyph unicode="7" horiz-adv-x="747" d="M0 936q0 -51 55 -51h4q3 0 72 -6q40 -7 64 -7h22h45q76 0 96 -28q21 -27 0 -96q-16 -53 -39 -113q-33 -97 -47 -146q-4 -14 -36 -120q-30 -82 -39 -121q-15 -58 -56 -142l-4 -10q-14 -34 -2 -57q12 -25 35 -31q20 -4 35 -4q38 0 65.5 24t36.5 64q0 4 1 7.5t2.5 8l2.5 7.5 q36 67 84 229q21 81 52 162q7 21 16 39q30 73 33 86q12 71 59 194q24 65 45 129q7 31 -4 45q-14 17 -39 17q-10 0 -29.5 -1t-29.5 -1h-62q-38 0 -96 4q-20 2 -63 2q-42 0 -62 -2h-59q-44 0 -62 2h-6q-22 0 -43 -8q-47 -18 -47 -76z" />
<glyph unicode="8" horiz-adv-x="831" d="M16 195q13 -52 44 -91.5t71 -58.5l8 -4q96 -45 152 -45q21 0 45 6h33h20h23q143 12 223 117q50 67 53 172q2 90 -18.5 148t-89.5 91q-28 14 -35 37q-3 24 18 45q43 43 60 121q20 78 -17 154.5t-112 111.5q-39 19 -127 27q-5 0 -16 1t-17 1q-8 2 -27 2q-128 0 -201 -102 q-95 -144 11 -301q17 -25 16.5 -45.5t-9.5 -31t-28 -26.5q-63 -55 -78 -104q-36 -99 -2 -225zM154 311q3 77 56 129t128 52h4q86 -1 137 -47.5t60 -131.5q3 -61 -41 -114q-28 -32 -66 -52t-72 -20h-4q-91 0 -155 70q-50 53 -47 114zM215 784q-1 33 45 71t84 40h2 q46 0 91 -38t48 -79q3 -39 -39 -84q-49 -53 -98 -53q-50 0 -91 44t-42 99z" />
<glyph unicode="9" horiz-adv-x="827" d="M41 522q44 -112 168 -133q58 -10 90 -10q94 0 154 51q2 2 5.5 3.5t4.5 2.5q15 6 24 6q29 0 33 -39q4 -33 -4 -51q-19 -63 -53 -133q-20 -41 -57 -65.5t-80 -24.5q-38 0 -76 23q-45 28 -98 28l-5 -2q-50 0 -63 -31q-7 -16 -1 -30t23 -35q39 -48 89.5 -65t123.5 -17h54 l12 2q59 0 94 21q138 80 176 272q36 178 27 299q-4 78 -53 219q-34 98 -112.5 154.5t-180.5 56.5q-30 0 -64 -6q-112 -17 -184 -98q-146 -165 -47 -398zM174 635q-24 154 113 235q25 17 55 17q56 0 107 -60l8 -8q10 -10 16 -17t15 -19.5t11.5 -21.5t5 -24.5t-4.5 -27.5 q3 -78 -49 -144q-45 -57 -115 -57q-19 0 -29 2q-52 7 -89.5 42.5t-43.5 82.5z" />
<glyph unicode=":" horiz-adv-x="286" d="M0 588q0 -4 1 -12.5t1 -12.5q0 -37 10 -57l2 -4q18 -32 29 -41q18 -11 33 -8q8 0 22 -9q4 -2 8 -2q16 0 35 19q11 11 21 16q12 14 12 31q-3 22 0 37q4 17 -8 53q0 4 -2 6q-6 17 -23 31q-2 4 -8 10l-6 6q-17 14 -43 11q-42 -5 -72 -52l-2 -4q-10 -10 -10 -18zM12 117 q-21 -62 19 -105q8 -8 10 -12l8 -8l4 -6q14 -10 41 -10t43 16q2 4 8 8.5t7 5.5l6 6l4 4q17 14 20 23q2 2 2 16q-4 43 -10 62q0 2 -1 6t-1 6q0 8 -2 10q-1 4 -10 17q-4 4 -9 7.5t-12.5 7.5t-11.5 7q-15 6 -31 19q-9 -3 -37 -17q-12 -8 -18 -10q-15 -8 -27 -43q0 -2 -1 -5.5 t-1 -4.5z" />
<glyph unicode="=" horiz-adv-x="745" d="M0 514q0 -10 8 -22q7 -7 19 -7h2h16q27 0 41 -2h39q23 0 33 2h8q3 0 8 -1t8 -1q4 -2 13 -2h4q5 1 15 2t15 2q15 0 39 4h15q12 0 36 -4q20 -4 31 -4t15 2q3 0 9.5 1t10.5 1h4q25 -2 78 -2q51 0 78 2h2h14q17 0 25 -2q1 0 4.5 -1t5.5 -1q18 0 27 17q14 20 18 71l2 6 q0 19 -8 23q-27 12 -60 12h-18q-4 -2 -10 -2q-12 -2 -39 -2q-19 0 -27 2q-6 2 -18 2q-4 0 -11.5 -1t-11.5 -1t-12 -1t-12 -1h-2q-6 0 -18.5 1t-18.5 1q-8 0 -25.5 -1t-25.5 -1h-19h-31h-28h-35h-25q-22 0 -30 2q-8 0 -24.5 1t-24.5 1q-26 0 -80 -8q-15 -3 -27 -29 q-4 -9 0 -28q0 -26 -2 -31zM2 240q3 -14 11.5 -24.5t15.5 -10.5q2 2 10 2q3 0 9 -1t9 -1h19h12h2h2h21h22h23q18 0 26 -2q4 0 16 -1t19 -1t20.5 1t20.5 1q6 0 19.5 1t19.5 1h2q21 0 29 -2h26q23 0 31 2q20 4 29 4q18 0 39 -6h6q24 -6 47 -6q21 0 29 4q20 4 32 4h11 q32 3 43.5 11.5t15.5 39.5q2 8 2 23v22q0 4 -2 4q0 2 -2 2q-12 21 -51 25q-6 0 -8 2h-13q-14 0 -20 -2h-25h-12q-3 0 -7.5 1t-6.5 1q-4 0 -10 -1t-7 -1q-15 -6 -31 -6q-14 0 -20 2q-20 4 -25 4q-3 0 -8 -1t-8 -1q-10 -4 -33 -4q-7 0 -21 1t-20 1q-2 0 -5.5 1t-4.5 1h-22h-33 q-10 -2 -31 -2h-25h-30h-25h-20q-8 2 -25 2q-25 0 -55 -6q-25 -8 -25 -23q-1 -2 -2 -6t-2 -6q-7 -27 -4 -49z" />
<glyph unicode="?" horiz-adv-x="575" d="M2 784q0 -4 1 -14t1.5 -16t1.5 -16.5t2.5 -16.5t3.5 -15.5t5.5 -15t8 -12.5t10.5 -10.5t13 -6t16.5 -2.5t20.5 3q22 5 32.5 21t11.5 32.5t1.5 41.5t3.5 38q11 57 51 100q48 42 83 19.5t53.5 -74.5t11.5 -92q-10 -52 -51 -129.5t-80 -104.5l-8 -8q-1 -2 -19 -39 q-14 -31 -16 -39l-13 -29q-22 -67 -20 -94q2 -2 2 -8q0 -17 2 -24t12 -11q8 -8 9 -10l2 -2q9 -6 16 -6h4l2 2l8 2q9 0 11 -2q1 0 3 -1t3 -1q10 4 18 16q22 33 61.5 107t63.5 110q4 6 21 33.5t22 36.5t19 33t20 37.5t15.5 34.5t15.5 39.5t10 37.5q30 133 -56.5 223t-222.5 78 q-51 -6 -96 -35q-4 -4 -8 -4q-2 -2 -8.5 -5.5t-9.5 -5.5t-6.5 -5.5t-4.5 -7.5l-6 -9q-2 -3 -10 -16t-10.5 -17.5t-8.5 -16t-8.5 -18.5t-5.5 -17.5t-4 -20.5v-14v-21q-4 -10 0 -33zM68 104q-9 -94 73 -127h13q2 -1 7.5 -2t8.5 -2q4 -2 14 -2l21 6q4 1 13 3.5t13 3.5h7l6 6 q29 32 20 57q-2 4 -2 14v17q3 16 -2 24q-50 62 -113 62h-2q-3 3 -8 0q-6 0 -26 -4l-21 -6l-2 -2q-4 -12 -10 -21q-8 -15 -10 -27z" />
<glyph unicode="A" horiz-adv-x="815" d="M-442 -317q3 58 16 71.5t82 28.5q86 18 194.5 109.5t151.5 191.5q4 16 14 44t13 40q31 106 34 121q36 152 78 284q3 13 9.5 34.5t11 39t8.5 33.5q4 14 35 113q34 111 53 184q5 32 39 45q50 16 92 16l35 -4q52 -12 63 -55q76 -310 103 -447v-6q41 -197 61 -260 q24 -87 39 -198q2 -15 2 -27q0 -23 -8 -31q-11 -14 -68 -14h-12q-54 3 -74 57q-22 54 -76 89t-120 38q-72 0 -119 -33q-8 -8 -12 -10q-17 -23 -33.5 -65.5t-29.5 -81.5t-45.5 -90.5t-80.5 -94.5q-79 -72 -156 -114.5t-173 -55.5q-37 -6 -78 -6q-4 -1 -8 -1q-19 0 -31 12 q-11 11 -11 32q0 5 1 11zM264 440q-1 -11 -1 -21q-1 -45 11 -65q14 -24 64 -32q2 0 6 -1.5t6 -1.5q27 0 55.5 12.5t43.5 30.5q13 15 13 31q0 3 -1 6q-9 39 -15 74q-11 82 -28 133l-4 8q-10 43 -41 45h-4h-5q-35 0 -53 -43q-44 -94 -47 -176z" />
<glyph unicode="B" d="M2 80q-2 -9 -2 -17q0 -21 12 -38t33 -21l21 -2q78 -10 141 -10q27 0 41 2h24q9 0 15 -2h28q148 0 254 69q83 55 95 150q5 31 6 59q0 138 -123 222q-19 14 -21 28q-2 16 17 35q86 90 86 192q0 30 -8 62q-22 88 -100.5 152.5t-164.5 64.5q-8 0 -10 -2q-14 0 -42 -1t-42 -1 q-74 0 -123 8q-28 4 -37 4q-51 0 -74.5 -28.5t-25.5 -90.5q-1 -15 -1 -34q0 -39 3 -97q3 -55 3 -92q0 -19 -1 -33l-2 -41q-1 -41 -1 -77q0 -108 9 -170q2 -21 -6 -58q-5 -22 -5 -36q0 -7 1 -13q9 -44 9 -90t-9 -94zM163 748q0 22 9 52q10 34 37 60q33 29 47 29q8 0 16 -4 q62 0 129 -25q43 -19 58 -76q7 -23 7 -47q0 -11 -2 -22q-4 -35 -22 -60q-51 -69 -161 -69q-4 0 -12.5 1t-12.5 1q-34 1 -56.5 22.5t-27.5 53.5l-2 14q-7 52 -7 70zM166 281v14q-2 16 -2 31q0 59 29 92q38 41 108 41q23 0 35 -2q122 -12 168 -99q11 -22 11 -51q0 -34 -15 -76 q-18 -50 -51 -63l-21 -8q-77 -29 -117 -29q-39 0 -67 14q-48 22 -65 52q-14 24 -14 64q0 10 1 20z" />
<glyph unicode="C" horiz-adv-x="796" d="M2 471q6 -140 51 -270q64 -185 312 -203q6 0 17 -1t17 -1q122 0 230 123q17 21 14 43q-3 24 -22 37q-39 34 -72 34q-36 0 -78 -45q-48 -51 -121 -51q-46 0 -82 22t-55 60q-47 109 -55 156q-12 73 -13 139q0 167 78 293q22 37 63 59.5t85 22.5q36 0 71 -21q19 -12 37 -37 q1 -1 5 -6.5t8 -7.5q23 -33 63 -33q34 0 66 29t32 53t-32 62q-51 60 -116 80t-145 20q-33 0 -49 -2q-96 -4 -174.5 -73t-103.5 -171q-33 -131 -33 -256q0 -27 2 -55z" />
<glyph unicode="D" d="M2 193q-1 -8 -1 -19q0 -22 5 -57q6 -48 6 -54q0 -35 12 -49.5t44 -15.5h51h69q52 0 72 -2q8 -2 23 -2q37 0 77 12q104 29 175.5 103t117.5 200q17 47 17 78v6v121v51q0 109 -45 219q-77 198 -273 238q-36 8 -94 8q-51 0 -76 -2q-27 -2 -78 -2h-20q-31 0 -49 -13t-25 -55 q-4 -29 -4 -73q0 -30 2 -66q2 -40 2 -71q0 -46 -4 -70q-2 -15 -2 -35q0 -28 4 -65q2 -20 2 -66q0 -14 1 -43t1 -43q1 -34 1 -65q0 -107 -11 -168zM164 418q-1 53 -1 99q0 115 7 183q0 36 -2 41q-7 17 -7 34q0 45 52 83q39 29 74 29q23 0 49 -13q150 -74 168 -251l6 -39 q8 -47 8 -80q0 -16 -2 -29q-11 -102 -43 -181t-108 -134q-36 -25 -72 -25q-22 0 -49 10q-81 45 -78 111q0 109 -2 162z" />
<glyph unicode="E" horiz-adv-x="698" d="M0 883q0 -93 4 -138q2 -34 2 -86.5t-2 -121.5q-2 -23 -2 -70q-1 -20 -1 -45q0 -51 3 -125q2 -63 2 -113q0 -75 -4 -123q-3 -33 14 -53q13 -16 43 -16h15q35 0 51 -2q8 0 24.5 -1t24.5 -1q17 0 41 4q58 4 90 4q41 0 115 -4q8 -1 23.5 -2t23.5 -2h10q52 0 66 32 q12 24 12 48q0 28 -16 57q-8 8 -15 8h-20q-12 2 -39 2q-25 0 -33 -2q-21 -6 -45 -6q-15 0 -82 10q-42 10 -74 10q-22 2 -41 31q-35 43 -35 100q0 59 38 103q19 29 47 29h10q34 0 72 6q46 4 71 4h17h14q41 0 57 16q13 17 13 49q0 11 -2 25q-2 19 -9 27.5t-26 11.5 q-27 6 -76 6h-31h-31q-91 0 -124 32t-35 118v28l2 10v11v43q3 65 57 80q58 16 94 16q13 0 37 -4q14 -4 47 -4q48 0 109 14l6 2q27 5 37 25q6 11 6 31q0 16 -4 38q-9 33 -47 33q-13 0 -19 -2q-9 0 -29 -1t-30 -1q-26 0 -76 4q-7 0 -22.5 1t-22.5 1q-59 6 -121 6 q-74 0 -129 -14q-31 -7 -43 -21.5t-10 -42.5q0 -50 -2 -75z" />
<glyph unicode="F" horiz-adv-x="708" d="M0 82v-9q0 -39 23 -63q19 -22 53 -22h4q42 3 63 24q19 22 20 64q0 6 -1 12q-3 47 -3 79q0 16 1 28q12 170 157 170q12 0 21 -3h22q57 -6 66 -8h10q22 0 40.5 14t23.5 33q3 15 3 28q0 27 -14 46q-9 12 -22 12l-59 7q-54 8 -80 8q-21 0 -33 -2q-10 -2 -27 -2 q-32 0 -51.5 14t-34.5 49q-24 55 -24 126q0 58 16 126q4 24 22.5 42t43.5 24q34 10 90 10q34 0 57 -2q3 0 9.5 -1t9.5 -1t57 6q36 4 59 4h15q9 0 20 20q10 17 10 36q0 14 -6 30q-13 43 -47 55h-25q-35 -8 -102 -8h-51q-49 0 -76 -4q-10 -2 -35 -2q-23 0 -59 4q-40 4 -60 4 q-16 0 -40 -4q-40 -8 -54 -24q-12 -14 -12 -46v-10q1 -11 2 -33t2 -34q3 -88 3 -138q0 -30 -1 -45l-6 -231q0 -94 2 -143q1 -50 1 -96q0 -76 -3 -144z" />
<glyph unicode="G" horiz-adv-x="854" d="M2 536q3 46 12 136l4 37q17 147 109 239q91 88 203 88q28 0 55 -6l45 -6q36 -4 55.5 -7.5t46.5 -14.5t46 -29l18 -19q31 -25 45.5 -47t11.5 -55q-6 -38 -37 -47q-3 -1 -9 -4t-9 -4q-22 -11 -37 -11q-13 0 -24 11q-21 19 -84 67q-45 31 -95 31q-47 0 -87.5 -27.5 t-63.5 -74.5q-57 -118 -57 -263q0 -61 10 -127q6 -38 10.5 -58.5t15.5 -54t29.5 -60t44.5 -48.5q48 -39 102 -39q49 0 91 29.5t59 75.5l6 16q21 53 23 78q0 33 -15 51q-12 15 -39 15h-10q-34 0 -47.5 19.5t-13.5 70.5q0 18 12 30q19 19 51 19q15 0 23 -2q12 -2 41 -2h32 q5 0 16 1t17 1t17 -1t16 -1q48 -9 58.5 -19t11.5 -55v-18q-1 -10 -2 -31t-2 -31q0 -73 -27 -186.5t-77 -225t-105 -153.5q-3 -3 -10.5 -8.5t-10.5 -8.5q-73 -52 -148 -52q-18 0 -36 3q-24 0 -33 15q-6 10 0 26q21 62 47 82q24 18 55 21q20 0 41 14l15 14q42 61 59 93 q-53 -17 -100 -17q-29 0 -64 6h-8q-61 7 -96 21q-76 31 -114 91.5t-68 160.5q-19 59 -24 132q-3 43 -3 77q0 23 2 42z" />
<glyph unicode="H" horiz-adv-x="821" d="M10 166v18v62q2 39 2 116q2 39 2 234v117q0 26 4 80q3 42 3 77q0 60 -9 97q-3 12 -3 22q0 15 7 23q18 24 72 30h6q33 0 58.5 -23.5t25.5 -53.5q0 -20 -4 -70q-1 -8 -2 -24.5t-2 -24.5q0 -57 2 -86q2 -36 2 -63.5t-2 -45.5q-3 -29 23 -55q37 -47 96 -47h18q79 0 148 16 q26 6 41.5 24.5t17.5 43.5v16q3 89 14 164h-2l4 23q1 5 4.5 17.5t4.5 20.5q13 71 14 72q8 25 24 84.5t26 85t41.5 71t80.5 89.5q81 71 159 113.5t173 56.5l76 6q29 0 41 -12q10 -10 10 -41q-3 -60 -16.5 -73.5t-82.5 -27.5q-87 -18 -195.5 -109t-152.5 -192q-3 -13 -7 -27.5 t-9 -31.5t-8 -27q-26 -71 -37 -118q1 -36 1 -77t-0.5 -90.5t-0.5 -76.5q-2 -114 -2 -200.5t2 -145.5q0 -13 4 -45q3 -27 3 -49q0 -32 -7 -52q-9 -26 -30.5 -41.5t-47.5 -15.5q-9 0 -25 4q-49 14 -49 68q0 11 2 24q2 16 2 101q-2 12 -2 36q0 5 -1 14t-1 13q0 3 -1 9.5t-1 9.5 q-3 63 -39.5 100t-95.5 37q-13 0 -41 -4q-3 0 -17.5 -3t-21.5 -3q-8 0 -10 2h-18q-47 0 -78.5 -30t-32.5 -77q0 -201 2 -240q0 -29 -11.5 -42t-43.5 -17q-28 -4 -35 -4q-25 0 -38 10t-21 33q-14 39 -14 97q0 13 1 28z" />
<glyph unicode="I" horiz-adv-x="368" d="M63 233q-1 -19 -1 -37q0 -85 16 -139q-2 -28 14 -47t64 -22h6q29 0 43.5 14.5t15.5 46.5q3 45 3 96q0 31 -1 64q0 11 -1 33t-1 34v412v256q0 40 -23.5 66t-58.5 26h-8q-26 -3 -45 -28q-23 -33 -23 -68v-8q10 -69 10 -148q0 -66 -7 -139q-4 -73 -4 -175q0 -58 1 -126 l3 -29q0 -41 -3 -82z" />
<glyph unicode="J" horiz-adv-x="563" d="M6 35q6 -13 13 -20.5t19.5 -11.5t20 -5.5t25.5 -3.5l6 -2q16 -2 45 -2q119 0 193 72.5t80 195.5q3 57 3 121q0 39 -1 80v106q0 35 6 70q4 64 4 85v7q-4 41 -8 127q0 10 -1 29.5t-1 29.5v21q0 31 -2 45q-1 25 -19 37.5t-55 17.5q-2 0 -5 1t-5 1q-22 0 -39.5 -9.5 t-20.5 -27.5l-2 -18q-10 -62 -10 -105q0 -20 2 -36q5 -25 5 -77q0 -26 -1 -58q-3 -45 -3 -75q0 -15 1 -26q4 -50 4 -111q0 -75 -6 -167q-3 -42 -11 -73t-28 -62t-58.5 -48t-95.5 -18q-37 0 -53 -29q-9 -14 -9 -30q0 -15 7 -31z" />
<glyph unicode="K" horiz-adv-x="784" d="M2 100v-7q0 -15 6 -46q9 -45 53 -45h11q48 0 66.5 10.5t25.5 32.5q9 43 9 118q0 25 -1 54q0 10 -1 32t-1 32v18v39v7q0 57 66 83q12 4 18 4q24 0 47 -37q6 -12 8 -14q14 -19 27 -49q215 -563 551 -563q36 0 106 4l6 2q12 0 20.5 11t10.5 26q0 34 -22 59q-26 29 -66 29 l-6 -2h-18q-159 0 -273 159q-36 51 -112 215.5t-105 241.5q-14 39 -27 66q-7 21 -7 39q0 20 9 36l33 50q22 42 62 100q3 6 43 63q49 59 69 113q8 24 6 33q-5 5 -16 8q-27 8 -59 8q-103 0 -138 -84q-16 -39 -69 -117q-47 -68 -62 -100q-17 -31 -49 -31q-8 0 -14 2 q-22 7 -27 41l-2 7q-10 51 -10 149v68q-1 26 -22 45t-52 22q-6 2 -16 2q-47 0 -64 -45q-16 -49 -16 -118q0 -33 4 -70q9 -129 9 -222q0 -56 -3 -98q-5 -53 -5 -119q0 -33 1 -69q0 -149 -4 -193z" />
<glyph unicode="L" horiz-adv-x="624" d="M2 205q0 -80 2 -121q0 -46 15 -64t53 -18q10 0 16 2q31 2 102 2h86q29 -2 86 -2q55 0 84 2t42.5 17t13.5 49v5q0 37 -14 51q-14 15 -39 17h-68h-62q-6 -2 -18 -2q-72 0 -105.5 36.5t-33.5 113.5q0 127 2 190l1 91v51q0 41 -1 41q0 155 -2 233v41v49q0 26 -23 35 q-40 10 -63 10q-4 0 -13.5 -1t-13.5 -1q-39 -9 -39 -45v-33q0 -44 -2 -67q-5 -39 -5 -103q0 -32 1 -71v-113q-4 -80 -4 -206q0 -84 2 -189z" />
<glyph unicode="M" horiz-adv-x="993" d="M-353 -246q9 18 72 49q78 38 160.5 155.5t100.5 227.5q0 30 4 88q4 82 4 127h2q0 76 4 115q1 21 1 43q0 52 -5 115q-4 53 -4 138q0 57 2 128v35q0 33 29 52.5t67 19.5h8q36 -2 64 -14.5t50.5 -37.5t35 -43.5t32.5 -54.5q57 -97 93 -152q24 -38 49 -38q20 0 49 41 q81 124 135 217q20 35 57 55t80 20q40 0 72 -16q29 -12 29 -39v-16q0 -34 6 -90l6 -76q0 -23 -6 -47q-6 -33 -6 -55v-11q6 -38 6 -155q-2 -46 -2 -79.5t2 -54.5q2 -26 2 -56q0 -42 -4 -93q-3 -63 -3 -107q0 -22 1 -39q1 -6 2 -19t2 -19q4 -29 -8 -43q-19 -19 -43 -19 q-3 0 -11 -1t-12 -1t-12.5 1t-12.5 1h-14q-28 0 -31 19q-3 29 -12 59q-7 32 -9.5 46.5t-1 39.5t12.5 45q6 14 6 35.5t-6 48.5q-6 18 -6 35q-4 42 -4 93.5t4 113.5q0 40 2 63q0 22 -8 41q-12 44 -45 47h-6q-12 0 -20.5 -8.5t-10.5 -14.5l-6 -18q-6 -24 -37 -55l-16 -16 q-16 -18 -37 -60q-22 -49 -47 -69q-27 -21 -43 -21q-24 0 -41 35q-41 73 -111 184q-25 45 -55 45q-5 0 -17 -4q-40 -13 -40 -62q0 -8 1 -18v-24v-158q0 -34 -4 -104q2 -20 2 -41q-2 -22 -3 -92.5t-9 -108.5q0 -27 -12 -45q-18 -51 -60 -117q-61 -92 -124.5 -153.5 t-151.5 -98.5q-29 -13 -74 -26q-12 -4 -22.5 -4t-18.5 4q-14 8 -20 36q-7 33 -7 53q0 15 4 23z" />
<glyph unicode="N" horiz-adv-x="833" d="M-332 -257q10 16 72 48q82 42 172 159t106 224q0 16 5 88q1 10 1.5 35t1 63.5t1.5 65.5q-2 28 -1.5 51t1.5 39v45l2 -4q2 38 2 89q-1 12 -1 26v44q0 41 1 75q0 59 -6 114q0 8 -1 24t-1 23q-2 40 12 57.5t53 24.5q4 0 12.5 1t12.5 1q42 0 75 -24.5t50 -67.5 q33 -89 96 -207q67 -127 100 -217q25 -71 68 -71h8q18 3 27.5 15.5t10.5 23t1 28.5v23q8 65 8 127q0 54 -6 106q-2 15 -2 32q0 24 4 52q3 30 3 54q0 36 -7 59q-5 18 6 39q20 27 59 30h4q28 0 47.5 -16.5t20.5 -42.5q2 -25 2 -76q0 -7 -1 -22t-1 -23q-3 -36 -3 -82 q0 -28 1 -59q2 -33 2 -103q-3 -76 -3 -151q0 -112 7 -219q1 -19 1 -41t-0.5 -49t-0.5 -41l-2 -39q0 -59 -55 -68q-16 -2 -43 -2q-58 0 -82 47q-11 20 -78 156q-61 132 -96 190q-9 15 -31 70q-27 74 -59 111l-6 8q-14 24 -33 24q-2 0 -6 -1t-6 -1q-30 -9 -30 -44q0 -7 1 -15 q2 -27 2 -164q0 -13 -1 -37t-1 -37q4 -37 2 -39v-14q0 -21 -2 -31v-42.5t-1 -43.5t-3 -39t-7.5 -44.5t-14.5 -43t-23 -51.5t-33 -55q-62 -91 -125.5 -152t-151.5 -98q-53 -23 -73 -29q-12 -3 -21 -3q-12 0 -20 5q-15 9 -21 37q-7 33 -7 52q1 16 5 23z" />
<glyph unicode="O" horiz-adv-x="860" d="M-2 484q0 -4 0.5 -11.5t2.5 -14t5 -12.5q9 -20 9 -55q0 -9 -1 -20v-5q0 -66 25 -128q26 -64 74 -138q9 -12 24 -24q110 -70 172 -70q25 0 41 4q12 -2 37 -2q106 0 173 49.5t102 153.5q56 159 56 311q0 180 -79 350q-34 71 -104.5 113.5t-163.5 46.5h-11q-38 0 -108 -24 q-31 -12 -64 -19q-35 -7 -65 -45q-67 -74 -90 -163.5t-25 -194.5q0 -25 -6 -49q0 -1 -1.5 -12.5t-2 -14t-0.5 -12.5v-8.5v-5.5zM156 483v27q0 90 12 156q14 76 53 143q22 37 58 58.5t77 21.5q78 0 123 -64q28 -40 46 -89.5t23.5 -83t12.5 -91.5q3 -21 3 -46q0 -64 -17 -155 q-4 -34 -8 -49q-9 -65 -70 -118.5t-125 -53.5q-58 0 -100 51q-92 112 -91 241q-1 26 3 52z" />
<glyph unicode="P" horiz-adv-x="776" d="M0 317v-10q0 -32 4 -131q3 -58 3 -98q0 -20 -1 -35q0 -52 51 -55h17q37 0 53 10.5t25 40.5q6 20 6 41q0 12 -2 24q-3 20 -3 38q0 57 29 91q36 45 121 60l19 2q48 8 70.5 13.5t58 21t59.5 39.5q122 120 123 271q0 17 -2 34q1 17 1 33q0 97 -42 159q-29 46 -71 73t-111 56 q-21 9 -72 13q-35 0 -51 4q-53 12 -144 12h-59h-16q-45 0 -54 -45q-11 -48 -11 -99q0 -41 7 -83q5 -26 5 -80q0 -27 -1 -62q-3 -42 -3 -72q0 -15 1 -26v-12q0 -38 -4 -150zM156 575q0 4 1 12.5t1 12.5q0 63 -2 94v41v11q0 61 30 92q36 39 117 39h4q89 -27 133 -86 q25 -35 32 -89q3 -20 3 -41q0 -35 -8 -69q-19 -91 -72 -121q-69 -41 -129 -41q-76 0 -106 80q-5 15 -5 39q0 12 1 26z" />
<glyph unicode="Q" horiz-adv-x="829" d="M8 408q8 -84 20.5 -141t49 -124t96.5 -112q31 -22 51.5 -34.5t51 -24t59.5 -11.5q22 0 43 6q16 4 27 4q49 0 88 -49q131 -149 331 -149h23q102 3 153 65q13 18 13 27t-17 22q-57 33 -84 33q-23 0 -49 -16q-16 -13 -37 -13q-3 0 -9 1.5t-9 1.5q-128 34 -186 86 q-27 21 -27 45q-3 24 20 47q48 52 60 92q49 148 49 297q0 44 -4 88v4q2 36 2 65q0 73 -12 111q-48 170 -148 236q-88 59 -201 59q-48 0 -92 -8q-121 -24 -180 -133q-56 -97 -82 -258q-8 -45 -8 -99t8 -118zM158 418l6 92q1 21 3 61l3 60q0 63 55 133t115 82q16 4 29 4 q40 0 76.5 -20.5t58.5 -55.5q27 -41 41 -95t16.5 -89.5t3.5 -100.5v-8q0 -161 -39 -245q-22 -44 -46 -64t-58 -20q-31 0 -66 14q-26 7 -47 10h-8q-98 16 -119 119l-18 86z" />
<glyph unicode="R" horiz-adv-x="737" d="M0 328l6 75q4 114 4 152v12q-1 11 -1 26q0 29 3 73q1 34 1 61q0 54 -5 80q-7 42 -7 82q0 50 11 98q8 44 54 47h16h59q91 0 144 -12q16 -4 51 -4q54 -4 72 -12q69 -29 111 -56t71 -73q42 -62 43 -160q0 -16 -2 -33q1 -17 1 -34q0 -151 -122 -271q-1 -2 -23.5 -17.5 t-25.5 -19.5q-6 -11 4 -20.5t34.5 -29.5t41.5 -46q41 -62 82.5 -191t64.5 -176q45 -80 88 -110q2 -1 24.5 -6t51 -11.5t41.5 -9.5q21 -4 26 -22q4 -12 4 -36q0 -9 -1 -20q-1 -6 -0.5 -18.5t-1.5 -21.5t-7 -17q-14 -20 -47.5 -20.5t-87.5 20.5q-76 31 -135 94t-96 145 q-17 37 -50 134.5t-59 146.5q-32 63 -80 117q-44 50 -90 49h-8q-60 -8 -86 -62q-20 -41 -20 -87q0 -14 2 -29q2 -12 2 -24q0 -21 -6 -42q-9 -31 -25 -42t-53 -11q-11 0 -17 2q-51 0 -51 55q1 15 1 35q0 40 -3 98q-4 98 -4 131v11zM156 586q-1 -14 -1 -26q0 -24 5 -40 q31 -82 106 -82q56 0 129 43q53 30 72 121q8 34 8 69q0 20 -3 40q-7 55 -32 88q-44 61 -133 88h-4q-81 0 -117 -39q-30 -30 -30 -92v-11v-40q2 -31 2 -95q0 -4 -1 -12t-1 -12z" />
<glyph unicode="S" horiz-adv-x="757" d="M2 197q-1 -8 -1 -16q0 -40 38 -70q137 -111 262 -111q19 0 51 4q128 22 199 96q27 27 40.5 64.5t16.5 66t4 82.5q0 4 1 8q0 77 -60 143q-62 70 -152 107q-138 59 -202 125q-36 37 -36 85q0 43 30 75q38 41 86 41q33 0 75 -27q10 -8 74 -63q23 -23 41 -23q4 0 8 2 q60 3 90 60q7 13 7 27q0 27 -27 53q-35 30 -57.5 46.5t-59.5 32.5t-74 19h-43q-65 0 -141 -12q-67 -12 -111 -74q-53 -76 -53 -161q0 -40 12 -83q16 -61 55.5 -101t104.5 -79l78 -41q44 -23 62.5 -33.5t51 -33.5t54.5 -48q35 -40 35 -83q0 -9 -2 -19q-6 -52 -56 -84 q-48 -31 -106 -31q-102 0 -160 74q-26 29 -59 29q-2 0 -11 -1t-14 -1q-45 -9 -51 -45z" />
<glyph unicode="T" horiz-adv-x="686" d="M4 993q-4 -22 -4 -39q0 -24 8 -36q17 -22 74 -31q68 -9 94 -49q21 -30 21 -72q0 -14 -2 -29v-22v-8l2 -23q8 -94 8 -147q0 -122 -2 -181v-51q0 -55 2 -82q1 -36 1 -65q0 -58 -5 -86q-8 -37 6 -58q16 -19 67 -22q46 0 65 18.5t19 61.5v108q1 114 1 221l-3 336q0 83 39 113 q40 31 111 33q29 1 41 11t14 32q4 17 4 32q1 14 -3 25q-6 24 -32 31q-68 18 -114 18q-23 0 -33 -2q-52 -8 -131 -8q-49 0 -139 4q-10 1 -31.5 2t-32.5 2q-35 0 -45 -37z" />
<glyph unicode="U" horiz-adv-x="735" d="M-10 604q-2 26 -2 43t2 23q11 29 11 72q0 29 -5 65q-4 46 -4 65q0 18 8 54q9 40 9 64q0 9 -1 16q36 8 58 8q19 0 55 -8q26 -11 26 -48v-8v-30v-15q8 -45 8 -130q0 -31 -1 -68q-3 -72 -3 -113q0 -24 1 -37q2 -33 2 -100q-1 -21 -1 -40q0 -87 15 -143q21 -74 57 -104 q44 -35 94 -35q44 0 80.5 26t55.5 70q11 27 20 107q0 4 1 13t1 14q6 61 6 184q-1 31 -1 59q0 47 3 88q-1 13 -3.5 44.5t-4 53t-0.5 23.5q2 29 3 88.5t4.5 88.5t22 80.5t54.5 107.5q62 91 125.5 152.5t151.5 99.5q12 4 36.5 13t36.5 13q11 4 21 4t20 -4q14 -9 21 -39 q7 -33 7 -53q0 -16 -4 -22q-9 -16 -73 -48q-78 -40 -160 -156.5t-100 -226.5q0 -28 -4 -90q0 -27 -2 -41v-6v-84q2 -28 1.5 -57t-1.5 -57q-2 -68 -2 -170v-26q0 -103 -21 -179q-24 -87 -87 -152t-160 -65h-13h-32h-35q-86 0 -129 28q-85 52 -125 137q-33 69 -33 153 q0 19 2 38q4 37 4 78q0 78 -14 170z" />
<glyph unicode="V" horiz-adv-x="749" d="M0 979v7q0 50 41 56q25 5 29 5q35 0 63.5 -18t36.5 -44q29 -92 55 -246q2 -17 17 -88q7 -42 26 -104q26 -102 31 -141q3 -18 14.5 -29.5t28.5 -11.5q38 0 47 34q24 75 31 127q6 45 39 179l10 43q0 2 1 5t1 5q6 12 6 30v7q0 41 21 110q7 44 10 47q2 6 7 17.5t7 17.5 q0 2 1 5t1 5q4 14 6 19q3 9 12.5 40.5t14 44.5t16.5 41t25 46.5t34 44t48 49.5q81 71 158.5 113t171.5 55q27 4 77 8q27 0 39 -12q13 -13 13 -41q-3 -60 -16.5 -73t-84.5 -27q-85 -18 -193.5 -109t-152.5 -192q-17 -62 -26 -86q-1 -5 -4.5 -15.5t-4.5 -15.5 q-24 -81 -39 -166q-11 -54 -20 -86q-3 -17 -43 -178q-13 -54 -20 -76l-23 -90q-10 -39 -29.5 -118t-29.5 -118q-6 -35 -37 -41q-44 -8 -78 -8q-47 0 -76 26t-47 99q-22 84 -39 143q-3 12 -13 50.5t-16 58.5l-24 109q-16 72 -33 133l-24 102q-27 129 -56 199q-10 28 -10 47v6 z" />
<glyph unicode="W" horiz-adv-x="1288" d="M4 940q-4 20 -4 35q0 21 8 31q12 18 53 18l15 -2q59 -3 77.5 -21.5t18.5 -74.5q0 -52 12 -92q32 -103 54 -267q9 -79 24 -159l2 -13q10 -49 26 -61q11 -10 29 -10q25 0 33 14.5t10 38.5q1 3 2.5 11t2.5 11q44 115 53 256q7 76 37 195q22 98 24 108q7 34 40.5 55t70.5 21 q23 0 43 -10q13 -6 21.5 -16.5t11 -17.5t8.5 -25l2 -9q26 -88 43 -204l18 -107q3 -16 9.5 -45t9.5 -45q34 -159 41 -199q6 -40 39 -43q29 0 43 31q22 46 22 74q3 84 33 178q12 42 12 100q5 62 8 76l19 88q2 8 12 60t17 79q17 58 33 95t24 39q35 90 117 163q81 71 158 113 t171 55q37 6 78 10q26 0 39 -14q12 -12 12 -41q-3 -60 -16 -73.5t-84 -28.5q-86 -18 -194 -108.5t-152 -192.5q-12 -44 -27 -84q-26 -86 -35 -121q-1 -3 -18 -92l-12 -66q-4 -22 -23 -90q-20 -71 -26 -104q-22 -130 -70 -346l-8 -37q-7 -38 -37.5 -61t-71.5 -23q-8 0 -12 2 q-65 6 -96 39.5t-41 109.5q-21 144 -51 277q-1 6 -10 65t-19.5 99t-26.5 57q-6 6 -16 6q-13 0 -23 -10l-4 -4q-26 -22 -28 -45q-12 -78 -56 -271q-10 -36 -20 -88q-8 -46 -10 -69q-6 -50 -17 -88q-12 -42 -31 -59t-55 -17q-17 0 -27 2q-36 4 -50 5t-32.5 8t-23 11t-13.5 22 t-11.5 31t-10.5 48q-45 210 -53 252q-41 209 -66 313l-24 119q-22 101 -31 133z" />
<glyph unicode="X" horiz-adv-x="714" d="M-1 45q0 15 11 39l37 94q58 156 96 232q21 46 21 98q0 59 -27 127q-50 136 -119 289q-13 30 -13 52q0 16 7 28q14 26 58 26q29 0 61 -23t41 -49q63 -186 82 -239l2 -6q10 -39 37 -41q22 0 36 15t17 36q8 54 49 145l6 13l-2 2q2 1 19.5 64t19.5 65q11 26 25.5 67.5 t24 64.5t28.5 55.5t48.5 62t72.5 61.5q84 64 165.5 99.5t178.5 39.5q18 2 37.5 2t40.5 -2q25 0 39 -14q7 -9 7 -29q0 -7 -1 -14q-7 -58 -21.5 -70t-85.5 -20q-88 -11 -203 -92.5t-167 -178.5q-4 -11 -29 -69q0 -9 -6 -21q-7 -17 -20.5 -52t-20.5 -52q-86 -215 -109 -268 q-16 -32 -15 -65q0 -37 19 -77q33 -72 50 -121q37 -108 69 -161q8 -14 17 -54q2 -6 5 -20.5t5 -20.5q12 -29 4 -40q-9 -15 -53 -15q-72 6 -105 64q-34 61 -73 198l-7 25q-7 20 -10 29t-15 21.5t-28 12.5q-16 -1 -27 -11t-14.5 -19t-7.5 -25q-1 -2 -2 -6t-2 -7t-2 -5 q-18 -47 -29 -76q-29 -84 -61 -156q-22 -53 -84 -53q-29 0 -58 16q-19 12 -19 29z" />
<glyph unicode="Y" horiz-adv-x="724" d="M6 971q-6 19 -6 32t6 21q10 16 47 16q2 0 5 -1t5 -1h25q36 -2 49.5 -3.5t28 -13.5t21 -30.5t18.5 -60.5q62 -216 71 -244q2 -10 7 -51v-8q0 -46 43 -49h8q43 0 49 43q13 87 66 241l30 103q1 3 1.5 6t1 5t1 3t0.5 2q9 28 24.5 84.5t26 84t41.5 72.5t80 89q81 71 159 113 t173 55q28 4 76 8q29 0 41 -12q10 -10 10 -41q-3 -60 -16 -74t-82 -27q-87 -18 -195.5 -109.5t-152.5 -193.5q-3 -13 -7 -27t-9.5 -31t-8.5 -26q-27 -75 -47 -149q-4 -18 -6 -21q-16 -48 -45 -127q-90 -252 -121 -373q-10 -49 -14 -149v-47q-3 -46 -12 -55t-56 -9h-14 q-34 0 -52 21q-26 29 -26 76v10v18q2 43 2 75t-2 54q-6 67 -27 111q-39 80 -84 237l-6 17q-17 56 -72 196q-49 123 -55 140z" />
<glyph unicode="Z" horiz-adv-x="751" d="M6 -8q12 -15 39 -15h10q79 7 154 7q78 0 117 -2h114q64 0 95 2q28 0 39.5 11.5t13.5 37.5q1 13 1 23q0 29 -8 43q-11 18 -38 20q-47 6 -137 10q-10 0 -28 1t-24 1q-2 0 -5.5 -1t-4.5 -1q-6 -2 -14 -2h-6q-2 0 -8 1t-9 1q-14 1 -21.5 2.5t-18.5 9t-17 19.5q-4 10 -4 20 q0 20 16 45q1 1 6 11q21 36 80 161l43 92q23 49 41 91q24 62 55 122q83 158 115 256q6 18 6 28q0 6 -2 9q-8 11 -39 11q-25 2 -75 2q-89 0 -134 2q-25 2 -69 2q-43 0 -133 -4q-15 0 -46.5 -1t-48.5 -1q-32 -2 -41 -41q-3 -15 -3 -27q-1 -22 9 -36q14 -22 58 -34 q45 -10 84 -10q28 0 98 8q6 0 14 1t11 1q37 0 53 -22q7 -9 7 -24q0 -19 -11 -48q-37 -96 -129 -280q-82 -175 -98 -211q-10 -27 -43 -90q-47 -96 -64 -148q-6 -18 -6 -31.5t6 -21.5z" />
<glyph unicode="a" horiz-adv-x="837" d="M2 61q-2 -9 -2 -17q0 -10 3 -16q6 -12 26 -22q18 -12 45 -12q58 0 84 47q7 12 14 29q14 44 41 65q49 37 119 37q66 0 121 -33t77 -86q23 -55 76 -55h12q57 0 68 14q8 9 8 29q0 13 -4 31q-17 107 -45 196q-23 73 -67 258v6q-40 165 -117 443q-11 44 -64 53q-12 2 -37 2 q-46 0 -92 -18q-31 -13 -37 -45q-5 -29 -47 -187l-30 -114q-4 -17 -13.5 -52t-13.5 -53q-48 -181 -68 -289q-9 -44 -32 -120q-25 -90 -25 -91zM254 430q0 76 41 176q18 47 57 47h4q13 -1 23 -9.5t12.5 -14.5t7.5 -19l2 -10q22 -58 35 -133q6 -35 15 -72q2 -4 2 -9 q0 -13 -13 -28q-13 -20 -41 -32.5t-55 -12.5h-14q-50 7 -64 31q-13 21 -12 72v14z" />
<glyph unicode="b" d="M2 80q-2 -9 -2 -17q0 -21 12 -38t33 -21l21 -2q78 -10 141 -10q27 0 41 2h24q9 0 15 -2h28q148 0 254 69q83 55 95 150q5 31 6 59q0 138 -123 222q-19 14 -21 28q-2 16 17 35q86 90 86 192q0 30 -8 62q-22 88 -100.5 152.5t-164.5 64.5q-8 0 -10 -2q-14 0 -42 -1t-42 -1 q-74 0 -123 8q-28 4 -37 4q-51 0 -74.5 -28.5t-25.5 -90.5q-1 -15 -1 -34q0 -39 3 -97q3 -55 3 -92q0 -19 -1 -33l-2 -41q-1 -41 -1 -77q0 -108 9 -170q2 -21 -6 -58q-5 -22 -5 -36q0 -7 1 -13q9 -44 9 -90t-9 -94zM163 748q0 22 9 52q10 34 37 60q33 29 47 29q8 0 16 -4 q62 0 129 -25q43 -19 58 -76q7 -23 7 -47q0 -11 -2 -22q-4 -35 -22 -60q-51 -69 -161 -69q-4 0 -12.5 1t-12.5 1q-34 1 -56.5 22.5t-27.5 53.5l-2 14q-7 52 -7 70zM166 281v14q-2 16 -2 31q0 59 29 92q38 41 108 41q23 0 35 -2q122 -12 168 -99q11 -22 11 -51q0 -34 -15 -76 q-18 -50 -51 -63l-21 -8q-77 -29 -117 -29q-39 0 -67 14q-48 22 -65 52q-14 24 -14 64q0 10 1 20z" />
<glyph unicode="c" horiz-adv-x="776" d="M2 471q6 -140 51 -270q64 -185 312 -203q6 0 17 -1t17 -1q122 0 230 123q17 21 14 43q-3 24 -22 37q-39 34 -72 34q-36 0 -78 -45q-48 -51 -121 -51q-46 0 -82 22t-55 60q-47 109 -55 156q-12 73 -13 139q0 167 78 293q22 37 63 59.5t85 22.5q36 0 71 -21q19 -12 37 -37 q1 -1 5 -6.5t8 -7.5q23 -33 63 -33q34 0 66 29t32 53t-32 62q-51 60 -116 80t-145 20q-33 0 -49 -2q-96 -4 -174.5 -73t-103.5 -171q-33 -131 -33 -256q0 -27 2 -55z" />
<glyph unicode="d" d="M2 193q-1 -8 -1 -19q0 -22 5 -57q6 -48 6 -54q0 -35 12 -49.5t44 -15.5h51h69q52 0 72 -2q8 -2 23 -2q37 0 77 12q104 29 175.5 103t117.5 200q17 47 17 78v6v121v51q0 109 -45 219q-77 198 -273 238q-36 8 -94 8q-51 0 -76 -2q-27 -2 -78 -2h-20q-31 0 -49 -13t-25 -55 q-4 -29 -4 -73q0 -30 2 -66q2 -40 2 -71q0 -46 -4 -70q-2 -15 -2 -35q0 -28 4 -65q2 -20 2 -66q0 -14 1 -43t1 -43q1 -34 1 -65q0 -107 -11 -168zM164 418q-1 53 -1 99q0 115 7 183q0 36 -2 41q-7 17 -7 34q0 45 52 83q39 29 74 29q23 0 49 -13q150 -74 168 -251l6 -39 q8 -47 8 -80q0 -16 -2 -29q-11 -102 -43 -181t-108 -134q-36 -25 -72 -25q-22 0 -49 10q-81 45 -78 111q0 109 -2 162z" />
<glyph unicode="e" horiz-adv-x="698" d="M0 883q0 -93 4 -138q2 -34 2 -86.5t-2 -121.5q-2 -23 -2 -70q-1 -20 -1 -45q0 -51 3 -125q2 -63 2 -113q0 -75 -4 -123q-3 -33 14 -53q13 -16 43 -16h15q35 0 51 -2q8 0 24.5 -1t24.5 -1q17 0 41 4q58 4 90 4q41 0 115 -4q8 -1 23.5 -2t23.5 -2h10q52 0 66 32 q12 24 12 48q0 28 -16 57q-8 8 -15 8h-20q-12 2 -39 2q-25 0 -33 -2q-21 -6 -45 -6q-15 0 -82 10q-42 10 -74 10q-22 2 -41 31q-35 43 -35 100q0 59 38 103q19 29 47 29h10q34 0 72 6q46 4 71 4h17h14q41 0 57 16q13 17 13 49q0 11 -2 25q-2 19 -9 27.5t-26 11.5 q-27 6 -76 6h-31h-31q-91 0 -124 32t-35 118v28l2 10v11v43q3 65 57 80q58 16 94 16q13 0 37 -4q14 -4 47 -4q48 0 109 14l6 2q27 5 37 25q6 11 6 31q0 16 -4 38q-9 33 -47 33q-13 0 -19 -2q-9 0 -29 -1t-30 -1q-26 0 -76 4q-7 0 -22.5 1t-22.5 1q-59 6 -121 6 q-74 0 -129 -14q-31 -7 -43 -21.5t-10 -42.5q0 -50 -2 -75z" />
<glyph unicode="f" horiz-adv-x="708" d="M0 82v-9q0 -40 23 -63q19 -22 53 -22h4q42 3 63 24q19 22 19 64v12q-3 47 -3 79q0 16 1 28q12 170 157 170q12 0 21 -3h22q57 -6 66 -8h10q22 0 40.5 14t23.5 33q3 15 3 28q0 27 -14 46q-9 12 -22 12l-59 7q-54 8 -80 8q-21 0 -33 -2q-10 -2 -27 -2q-32 0 -51.5 14 t-34.5 49q-24 55 -24 126q0 58 16 126q4 24 22.5 42t43.5 24q34 10 90 10q34 0 57 -2q3 0 9.5 -1t9.5 -1t57 6q36 4 59 4h15q9 0 20 20q10 17 10 36q0 14 -6 30q-13 43 -47 55h-25q-35 -8 -102 -8h-51q-49 0 -76 -4q-10 -2 -35 -2q-23 0 -59 4q-40 4 -60 4q-16 0 -40 -4 q-41 -7 -54 -24q-12 -14 -12 -46v-10q1 -11 2 -33t2 -34q3 -88 3 -138q0 -29 -1 -45l-6 -231q0 -94 2 -143q1 -50 1 -96q0 -76 -3 -144z" />
<glyph unicode="g" horiz-adv-x="854" d="M2 536q3 46 12 136l4 37q17 147 109 239q91 88 203 88q28 0 55 -6l45 -6q36 -4 55.5 -7.5t46.5 -14.5t46 -29l18 -19q31 -25 45.5 -47t11.5 -55q-6 -38 -37 -47q-3 -1 -9 -4t-9 -4q-22 -11 -37 -11q-13 0 -24 11q-21 19 -84 67q-45 31 -95 31q-47 0 -87.5 -27.5 t-63.5 -74.5q-57 -118 -57 -263q0 -61 10 -127q6 -38 10.5 -58.5t15.5 -54t29.5 -60t44.5 -48.5q48 -39 102 -39q49 0 91 29.5t59 75.5l6 16q21 53 23 78q0 33 -15 51q-12 15 -39 15h-10q-34 0 -47.5 19.5t-13.5 70.5q0 18 12 30q19 19 51 19q15 0 23 -2q12 -2 41 -2h32 q5 0 16 1t17 1t17 -1t16 -1q48 -9 58.5 -19t11.5 -55v-18q-1 -10 -2 -31t-2 -31q0 -73 -27 -186.5t-77 -225t-105 -153.5q-3 -3 -10.5 -8.5t-10.5 -8.5q-73 -52 -148 -52q-18 0 -36 3q-24 0 -33 15q-6 10 0 26q21 62 47 82q24 18 55 21q20 0 41 14l15 14q42 61 59 93 q-53 -17 -100 -17q-29 0 -64 6h-8q-61 7 -96 21q-76 31 -114 91.5t-68 160.5q-19 59 -24 132q-3 43 -3 77q0 23 2 42z" />
<glyph unicode="h" horiz-adv-x="821" d="M0 158q0 -90 12 -125q9 -23 22.5 -32t39.5 -9q20 0 32 2q33 5 45 17.5t11 41.5q-2 38 -2 97.5t2 142.5q0 47 31 76.5t79 29.5h17q2 0 5 -1t5 -1q7 0 21.5 3t17.5 3q35 5 41 5q60 0 96 -37t41 -101v-18q2 -8 2 -25q0 -7 1 -20t1 -19q1 -21 1 -40q0 -32 -3 -60 q-2 -12 -2 -23q0 -54 51 -69q16 -4 25 -4q26 0 47.5 15.5t30.5 41.5q7 20 7 48q0 24 -5 53q0 15 -4 47q-2 87 -2 173t2 171q2 118 2 206.5t-2 147.5v14v33q-3 62 -13.5 73t-68.5 17q-6 2 -17 2q-27 0 -39 -15.5t-14 -51.5q0 -149 -10 -326v-16q-1 -25 -17.5 -42.5 t-42.5 -25.5q-69 -16 -147 -16h-16q-61 3 -99 47q-22 25 -22 55q2 18 2 45.5t-2 63.5l-1 43q-1 43 1 43q0 17 4 49q3 32 3 52q0 10 -1 17q0 31 -25 54.5t-57 23.5h-6q-57 -6 -72 -30q-8 -10 -8 -27q0 -9 2 -19q9 -37 9 -97q0 -35 -3 -77q-4 -50 -4 -79v-117q2 -58 2 -116 t-2 -118q-2 -39 -2 -116v-62z" />
<glyph unicode="i" horiz-adv-x="368" d="M63 233q-1 -19 -1 -37q0 -85 16 -139q-2 -28 14 -47t64 -22h6q29 0 43.5 14.5t15.5 46.5q3 45 3 96q0 31 -1 64q0 11 -1 33t-1 34v412v256q0 40 -23.5 66t-58.5 26h-8q-26 -3 -45 -28q-23 -33 -23 -68v-8q10 -69 10 -148q0 -66 -7 -139q-4 -73 -4 -175q0 -58 1 -126 l3 -29q0 -41 -3 -82z" />
<glyph unicode="j" horiz-adv-x="563" d="M6 35q6 -13 13 -20.5t19.5 -11.5t20 -5.5t25.5 -3.5l6 -2q16 -2 45 -2q119 0 193 72.5t80 195.5q3 57 3 121q0 39 -1 80v106q0 35 6 70q4 64 4 85v7q-4 41 -8 127q0 10 -1 29.5t-1 29.5v21q0 31 -2 45q-1 25 -19 37.5t-55 17.5q-2 0 -5 1t-5 1q-22 0 -39.5 -9.5 t-20.5 -27.5l-2 -18q-10 -62 -10 -105q0 -20 2 -36q5 -25 5 -77q0 -26 -1 -58q-3 -45 -3 -75q0 -15 1 -26q4 -50 4 -111q0 -75 -6 -167q-3 -42 -11 -73t-28 -62t-58.5 -48t-95.5 -18q-37 0 -53 -29q-9 -14 -9 -30q0 -15 7 -31z" />
<glyph unicode="k" horiz-adv-x="784" d="M2 100v-7q0 -15 6 -46q9 -45 53 -45h11q48 0 66.5 10.5t25.5 32.5q9 43 9 118q0 25 -1 54q0 10 -1 32t-1 32v18v39v7q0 57 66 83q12 4 18 4q24 0 47 -37q6 -12 8 -14q14 -19 27 -49q215 -563 551 -563q36 0 106 4l6 2q12 0 20.5 11t10.5 26q0 34 -22 59q-26 29 -66 29 l-6 -2h-18q-159 0 -273 159q-36 51 -112 215.5t-105 241.5q-14 39 -27 66q-7 21 -7 39q0 20 9 36l33 50q22 42 62 100q3 6 43 63q49 59 69 113q8 24 6 33q-5 5 -16 8q-27 8 -59 8q-103 0 -138 -84q-16 -39 -69 -117q-47 -68 -62 -100q-17 -31 -49 -31q-8 0 -14 2 q-22 7 -27 41l-2 7q-10 51 -10 149v68q-1 26 -22 45t-52 22q-6 2 -16 2q-47 0 -64 -45q-16 -49 -16 -118q0 -33 4 -70q9 -129 9 -222q0 -56 -3 -98q-5 -53 -5 -119q0 -33 1 -69q0 -149 -4 -193z" />
<glyph unicode="l" horiz-adv-x="604" d="M2 205q0 -80 2 -121q0 -46 15 -64t53 -18q10 0 16 2q31 2 102 2h86q29 -2 86 -2q55 0 84 2t42.5 17t13.5 49v5q0 37 -14 51q-14 15 -39 17h-68h-62q-6 -2 -18 -2q-72 0 -105.5 36.5t-33.5 113.5q0 127 2 190l1 91v51q0 41 -1 41q0 155 -2 233v41v49q0 26 -23 35 q-40 10 -63 10q-4 0 -13.5 -1t-13.5 -1q-39 -9 -39 -45v-33q0 -44 -2 -67q-5 -39 -5 -103q0 -32 1 -71v-113q-4 -80 -4 -206q0 -84 2 -189z" />
<glyph unicode="m" horiz-adv-x="1007" d="M2 936q-2 -71 -2 -128q0 -85 4 -138q5 -71 5 -118q0 -23 -1 -40q-4 -57 -4 -174l2 -47q0 -11 -1 -34t-1 -34q-2 -41 -2 -71t2 -50v-14q2 -21 3.5 -28.5t6 -22t13 -22.5t22.5 -13q16 -8 39 -8q33 0 53 20q21 21 21 62v350v156v26v6v7.5t0.5 8.5t1 9.5t2 9.5t3.5 9.5t5 8.5 t6.5 8.5t9 7t11.5 5.5t16 2q13 0 25.5 -9t17 -15t14.5 -21q84 -139 109 -184q20 -35 41 -35q20 0 43 20q21 17 49 70q23 47 37 62l16 16q29 29 35 53q12 43 39 43q1 0 2 -1t2 -1q32 -3 47 -47q6 -21 6 -41q0 -10 -1 -31.5t-1 -31.5q-2 -77 -2 -129t2 -78q0 -6 3 -18.5 t4 -16.5q6 -28 6.5 -48.5t-6.5 -33.5q-4 -8 -7 -17t-4.5 -16t-1 -17.5t0 -15t2 -18t3 -16t4 -17.5t3.5 -16l12 -60q0 -18 28 -18h17h24h23q29 3 41 18q13 19 10 46q-4 24 -4 36q-2 26 -2 56q0 42 4 90q3 72 3 113q0 24 -1 36q-3 38 -3 80q0 26 1 53q1 30 1 58q0 55 -5 98 q-1 8 -1 18q0 20 5 50q6 24 6 47q0 11 -1 23t-2.5 26.5t-2.5 23.5q-6 52 -6 107q0 25 -27 39q-31 16 -71 16q-45 0 -82.5 -20t-57.5 -55q-37 -64 -135 -218q-29 -41 -49 -41q-21 0 -47 39q-30 44 -94 154q-20 35 -33 53t-35.5 43t-50.5 37t-64 14h-8q-38 0 -66.5 -19 t-29.5 -52v-35z" />
<glyph unicode="n" d="M0 467v-12q0 -37 10 -97q9 -67 9 -105q0 -14 -1 -24q-6 -56 -6 -102.5t6 -85.5q4 -24 17.5 -31.5t36.5 -9.5q3 -1 9 -2t9 -2h10q15 0 27.5 10t13.5 31q5 85 5 160q0 32 -1 63q-2 32 -1.5 64t1.5 65q0 135 -2 162q-1 7 -1 14q0 37 30 45q4 2 10 2q17 0 35 -22l6 -10 q27 -31 60 -111q10 -32 30 -70q25 -43 97 -190q4 -8 31.5 -66t43.5 -88q26 -49 82 -49q9 0 45 4q56 10 56 66l2 39q0 111 -2 133q-6 113 -6 229q0 69 2 139v105q-2 38 -2 68q0 45 4 71v45q2 21 2 40.5t-2 37.5q-1 25 -20.5 41t-47.5 16h-6q-39 -3 -57 -30q-11 -22 -7 -37 q7 -24 7 -61q0 -24 -3 -54q-5 -32 -5 -60q0 -12 1 -24q8 -53 8 -110.5t-8 -120.5v-23q0 -14 -0.5 -22t-4 -19.5t-12 -18.5t-22.5 -9h-8q-39 0 -67 71q-24 63 -101 217q-68 132 -96 207q-17 44 -50 68t-75 24q-16 0 -26 -2q-38 -6 -52.5 -24t-11.5 -56q0 -8 1 -24.5t1 -24.5 q6 -111 6 -112q-4 -219 -10 -328z" />
<glyph unicode="o" horiz-adv-x="839" d="M-2 484q0 -4 0.5 -11.5t2.5 -14t5 -12.5q9 -20 9 -55q0 -9 -1 -20v-5q0 -66 25 -128q26 -64 74 -138q9 -12 24 -24q110 -70 172 -70q25 0 41 4q12 -2 37 -2q106 0 173 49.5t102 153.5q56 159 56 311q0 180 -79 350q-34 71 -104.5 113.5t-163.5 46.5h-11q-38 0 -108 -24 q-31 -12 -64 -19q-35 -7 -65 -45q-67 -74 -90 -163.5t-25 -194.5q0 -25 -6 -49q0 -1 -1.5 -12.5t-2 -14t-0.5 -12.5v-8.5v-5.5zM156 483v27q0 90 12 156q14 76 53 143q22 37 58 58.5t77 21.5q78 0 123 -64q28 -40 46 -89.5t23.5 -83t12.5 -91.5q3 -21 3 -46q0 -64 -17 -155 q-4 -34 -8 -49q-9 -65 -70 -118.5t-125 -53.5q-58 0 -100 51q-92 112 -91 241q-1 26 3 52z" />
<glyph unicode="p" horiz-adv-x="776" d="M0 317v-10q0 -33 4 -131q3 -58 3 -98q0 -20 -1 -35q0 -52 51 -55h17q37 0 53 10.5t25 40.5q6 20 6 41q0 12 -2 24q-3 20 -3 38q0 58 29 91q36 45 121 60l19 2q48 8 70.5 13.5t58 21t59.5 39.5q122 120 122 271q0 17 -1 34q1 17 1 33q0 97 -42 159q-29 46 -71 73t-111 56 q-21 9 -72 13q-35 0 -51 4q-53 12 -144 12h-59h-16q-45 0 -54 -45q-11 -48 -11 -99q0 -40 7 -83q5 -26 5 -80q0 -28 -1 -62q-3 -42 -3 -72q0 -14 1 -26v-12q0 -38 -4 -150zM156 575q0 4 1 12.5t1 12.5q0 63 -2 94v41v11q0 62 30 92q36 39 117 39h4q89 -27 133 -86 q25 -35 32 -89q3 -21 3 -41q0 -34 -8 -69q-19 -91 -72 -121q-69 -41 -129 -41q-76 0 -106 80q-5 15 -5 39q0 12 1 26z" />
<glyph unicode="q" horiz-adv-x="829" d="M8 408q8 -84 20.5 -141t49 -124t96.5 -112q31 -22 51.5 -34.5t51 -24t59.5 -11.5q22 0 43 6q16 4 27 4q49 0 88 -49q131 -149 331 -149h23q102 3 153 65q13 18 13 27t-17 22q-57 33 -84 33q-23 0 -49 -16q-16 -13 -37 -13q-3 0 -9 1.5t-9 1.5q-128 34 -186 86 q-27 21 -27 45q-3 24 20 47q48 52 60 92q49 148 49 297q0 44 -4 88v4q2 36 2 65q0 73 -12 111q-48 170 -148 236q-88 59 -201 59q-48 0 -92 -8q-121 -24 -180 -133q-56 -97 -82 -258q-8 -45 -8 -99t8 -118zM158 418l6 92q1 21 3 61l3 60q0 63 55 133t115 82q16 4 29 4 q40 0 76.5 -20.5t58.5 -55.5q27 -41 41 -95t16.5 -89.5t3.5 -100.5v-8q0 -161 -39 -245q-22 -44 -46 -64t-58 -20q-31 0 -66 14q-26 7 -47 10h-8q-98 16 -119 119l-18 86z" />
<glyph unicode="r" horiz-adv-x="876" d="M2 51q-3 -7 -3 -14q0 -16 15 -31q19 -14 78 -14q29 0 41 6q34 27 33 67q0 11 -2 23q-3 21 -3 41q0 51 21 98q20 45 66 45q14 0 25 -7t14.5 -11.5t11.5 -17.5l2 -5q43 -74 150 -168q62 -53 108 -69.5t133 -16.5q9 0 66 5q22 0 33 14q5 10 5 23q0 6 -1 12q-9 50 -21.5 59 t-73.5 14q-68 4 -105.5 24.5t-102.5 82.5q-46 46 -43 76q0 18 12.5 34.5t42.5 40.5q1 1 16 11q4 3 11 8.5t11 9t8.5 8.5t6.5 9q5 10 25 45q23 41 35 67t20 64q5 21 5 42q0 16 -3 31v17q0 163 -109 258q-92 76 -170 78h-6h-26q-10 -2 -29 -2q-13 0 -37 4q-50 12 -104 12 q-53 0 -105 -8q-51 -9 -51 -53v-115v-86q0 -39 4 -117q0 -23 1 -71.5t1 -73.5q-2 -25 -2 -49.5t2 -49.5q0 -110 -4 -165q-1 -9 -1 -18q0 -23 5 -52q1 -23 1 -42q0 -49 -7 -73zM160 727v13q0 115 88 139q15 6 33 6q24 0 71 -21q54 -28 88.5 -77t40.5 -107q2 -16 2 -31 q0 -98 -84 -174q-48 -39 -114 -39q-27 0 -41 4q-43 7 -57.5 34t-14.5 81q-4 36 -4 53q-4 41 -8 119z" />
<glyph unicode="s" horiz-adv-x="757" d="M2 197q-1 -8 -1 -16q0 -40 38 -70q137 -111 262 -111q19 0 51 4q128 22 199 96q27 27 40.5 64.5t16.5 66t4 82.5q0 4 1 8q0 77 -60 143q-62 70 -152 107q-138 59 -202 125q-36 37 -36 85q0 43 30 75q38 41 86 41q33 0 75 -27q10 -8 74 -63q23 -23 41 -23q4 0 8 2 q60 3 90 60q7 13 7 27q0 27 -27 53q-35 30 -57.5 46.5t-59.5 32.5t-74 19h-43q-65 0 -141 -12q-67 -12 -111 -74q-53 -76 -53 -161q0 -40 12 -83q16 -61 55.5 -101t104.5 -79l78 -41q44 -23 62.5 -33.5t51 -33.5t54.5 -48q35 -40 35 -83q0 -9 -2 -19q-6 -52 -56 -84 q-48 -31 -106 -31q-102 0 -160 74q-26 29 -59 29q-2 0 -11 -1t-14 -1q-45 -9 -51 -45z" />
<glyph unicode="t" horiz-adv-x="706" d="M4 993q-4 -22 -4 -39q0 -24 8 -36q17 -22 74 -31q68 -9 94 -49q21 -30 21 -72q0 -14 -2 -29v-22v-8l2 -23q8 -94 8 -147q0 -122 -2 -181v-51q0 -55 2 -82q1 -36 1 -65q0 -58 -5 -86q-8 -37 6 -58q16 -19 67 -22q46 0 65 18.5t19 61.5v108q1 114 1 221l-3 336q0 83 39 113 q40 31 111 33q29 1 41 11t14 32q4 17 4 32q1 14 -3 25q-6 24 -32 31q-68 18 -114 18q-23 0 -33 -2q-52 -8 -131 -8q-49 0 -139 4q-10 1 -31.5 2t-32.5 2q-35 0 -45 -37z" />
<glyph unicode="u" horiz-adv-x="794" d="M4 623l2 -15q13 -87 13 -170q0 -39 -3 -78q-2 -20 -2 -40q0 -187 158 -287q48 -29 129 -29l35 2q5 0 16 -1t17 -1h12q97 0 160.5 65t87.5 152q20 73 20 179v28q-1 14 -1 37q0 47 3 131q1 0 1 58l-1 59v82v63q-2 24 -1.5 47t1.5 47v6q2 27 -1 39.5t-17 22.5q-28 14 -53 14 q-30 0 -58 -14q-26 -13 -26 -55v-9q1 -6 2 -18.5t2 -19.5q6 -74 6 -118q0 -25 -2 -40q-8 -63 -8 -195q1 -36 1 -68q0 -65 -5 -116q-3 -12 -3 -27q-9 -78 -20 -106q-19 -44 -55 -70t-80 -26q-51 0 -94 34q-37 30 -58 105q-15 56 -15 143q0 20 1 41q0 65 -2 98q-2 27 -2 58 q0 43 4 94q1 40 1 73q0 83 -7 124v14v31v7q0 38 -29 48q-21 8 -53 8q-33 0 -57 -8q4 -4 2 -21t-2 -20t-4 -19.5t-5 -19.5q-8 -36 -8 -53q0 -18 4 -64q5 -36 5 -65q0 -44 -11 -72q-4 -9 -4 -25t4 -40z" />
<glyph unicode="v" horiz-adv-x="786" d="M0 971v-5q0 -17 10 -46q29 -72 56 -201l24 -101q18 -68 33 -135l24 -106q3 -12 13 -50.5t16 -58.5q20 -66 39 -145q18 -72 47 -97.5t76 -25.5q34 0 78 8q31 6 37 41q10 39 29.5 117t29.5 117l23 90q11 36 20 78q42 171 43 176q9 32 20 86q32 152 58 231q9 29 9 48 q0 13 -5 20q-12 15 -64 18q-2 0 -5 -1t-5 -1h-12h-8q-6 2 -19 2q-37 0 -43 -41q-5 -24 -22 -76q-25 -81 -25 -126v-7q0 -16 -6 -28q0 -2 -1 -6.5t-1 -6.5l-10 -41q-34 -144 -39 -180q-7 -52 -31 -127q-10 -33 -47 -33q-36 0 -43 41q-6 46 -31 140q-20 72 -26 104 q-17 87 -17 88q-26 154 -55 248q-7 26 -35.5 42.5t-64.5 16.5q-19 0 -29 -2q-41 -8 -41 -58v-7z" />
<glyph unicode="w" horiz-adv-x="1261" d="M4 946q9 -33 31 -133l24 -119q25 -104 66 -313q8 -42 53 -252q8 -35 10.5 -48t11.5 -31t13.5 -22t23 -11t32.5 -8t50 -5q10 -2 27 -2q36 0 55 17t31 59q11 38 17 88q2 25 10 70q10 52 20 88q44 195 56 270q2 23 28 45l4 4q10 10 23 10q10 0 16 -6q8 -12 8 -18 q0 -27 15 -64q18 -39 18 -70q0 -9 -2 -18q-3 -25 6 -49q31 -73 56 -240l6 -38q10 -76 41 -110t96 -40q4 -2 12 -2q41 0 71.5 23t37.5 61l8 37q48 216 70 346q6 33 26 104q19 68 23 90l12 66q19 118 45 186q4 11 4 37q0 17 -2 41q-4 24 -4 37q0 8 -12 8q-80 -5 -115 -10 q-18 0 -22 -18l-29 -140q-3 -15 -9.5 -44.5t-9.5 -43.5t-8 -76q0 -58 -12 -100q-30 -94 -33 -178q0 -28 -22 -74q-14 -31 -43 -31q-33 3 -39 43q-7 40 -41 199l-19 90l-9 54t-9 53q-17 118 -43 205l-2 8q-6 18 -8.5 25t-11 17.5t-21.5 16.5q-20 10 -43 10q-38 0 -71 -20.5 t-40 -54.5q-2 -14 -24 -109q-30 -120 -37 -194q-9 -141 -53 -256q-1 -3 -2.5 -11.5t-2.5 -11.5q-1 -15 -3.5 -24.5t-12.5 -19t-27 -9.5q-12 0 -21.5 5.5t-14.5 10t-9.5 18.5t-5.5 17.5t-4 19.5l-2 13q-15 80 -24 159q-22 164 -54 267q-12 41 -12 92q0 56 -18.5 74.5 t-77.5 21.5l-15 2q-41 0 -53 -18q-8 -9 -8 -31q0 -15 4 -35z" />
<glyph unicode="x" horiz-adv-x="702" d="M18 20q27 -18 58 -18q62 0 84 53q27 61 61 156q5 13 14.5 38.5t14.5 37.5l6 18q4 16 7.5 25t14.5 19t27 11q16 0 28 -12.5t15 -21.5t10 -29l7 -25q39 -137 73 -196q19 -35 44 -48.5t61 -15.5q43 0 53 13q3 5 3 12q0 11 -7 29l-10 40q-7 37 -17 54q-32 52 -69 162 q-15 45 -50 120q-20 40 -19 77q0 33 15 65q23 53 109 268q7 17 20.5 52t20.5 52t7 30q0 26 -26 40q-20 10 -41 10q-34 0 -61.5 -17.5t-34.5 -43.5q-12 -41 -41 -105q-41 -91 -49 -145q-3 -19 -17 -34t-36 -15q-26 0 -37 39l-2 8q-24 67 -82 238q-9 27 -41 50t-61 23 q-44 -3 -58 -26q-7 -13 -7 -30q0 -23 13 -52q67 -148 119 -287q27 -70 27 -129q0 -52 -21 -96q-38 -78 -96 -234l-37 -94q-11 -22 -11 -37q0 -18 19 -29z" />
<glyph unicode="y" horiz-adv-x="765" d="M6 938q3 -10 55 -139q55 -138 72 -195l6 -18q46 -160 84 -238q21 -40 27 -108q2 -23 2 -55.5t-2 -73.5v-19v-10q0 -49 26 -78q17 -20 52 -20h14q46 0 55.5 9t12.5 54v47q4 102 14 150q30 117 121 372q29 79 45 127l24 66q37 93 45 141q3 18 3 28t-3 13q-5 8 -28 8h-15 q-10 -2 -34 -2h-29q-55 0 -70 -55q-24 -74 -34 -113q-53 -154 -66 -241q-6 -43 -49 -43l-8 2q-43 3 -43 49v8q-5 42 -7 49q-12 39 -71 244q-21 77 -37.5 91.5t-79.5 17.5l-25 2h-10q-37 0 -47 -17q-6 -7 -6 -20.5t6 -32.5z" />
<glyph unicode="z" horiz-adv-x="751" d="M6 -8q12 -15 39 -15h10q79 7 154 7q78 0 117 -2h114q64 0 95 2q28 0 39.5 11.5t13.5 37.5q1 13 1 23q0 29 -8 43q-11 18 -38 20q-47 6 -137 10q-10 0 -28 1t-24 1q-2 0 -5.5 -1t-4.5 -1q-6 -2 -14 -2h-6q-2 0 -8 1t-9 1q-14 1 -21.5 2.5t-18.5 9t-17 19.5q-4 10 -4 20 q0 20 16 45q1 1 6 11q21 36 80 161l43 92q23 49 41 91q24 62 55 122q83 158 115 256q6 18 6 28q0 6 -2 9q-8 11 -39 11q-25 2 -75 2q-89 0 -134 2q-25 2 -69 2q-43 0 -133 -4q-15 0 -46.5 -1t-48.5 -1q-32 -2 -41 -41q-3 -15 -3 -27q-1 -22 9 -36q14 -22 58 -34 q45 -10 84 -10q28 0 98 8q6 0 14 1t11 1q37 0 53 -22q7 -9 7 -24q0 -19 -11 -48q-37 -96 -129 -280q-82 -175 -98 -211q-10 -27 -43 -90q-47 -96 -64 -148q-6 -18 -6 -31.5t6 -21.5z" />
<glyph unicode="&#x2000;" horiz-adv-x="743" />
<glyph unicode="&#x2001;" horiz-adv-x="1487" />
<glyph unicode="&#x2002;" horiz-adv-x="743" />
<glyph unicode="&#x2003;" horiz-adv-x="1487" />
<glyph unicode="&#x2004;" horiz-adv-x="495" />
<glyph unicode="&#x2005;" horiz-adv-x="371" />
<glyph unicode="&#x2006;" horiz-adv-x="247" />
<glyph unicode="&#x2007;" horiz-adv-x="247" />
<glyph unicode="&#x2008;" horiz-adv-x="185" />
<glyph unicode="&#x2009;" horiz-adv-x="297" />
<glyph unicode="&#x200a;" horiz-adv-x="82" />
<glyph unicode="&#x202f;" horiz-adv-x="297" />
<glyph unicode="&#x205f;" horiz-adv-x="371" />
<glyph unicode="&#x25fc;" horiz-adv-x="1034" d="M0 0v1034h1034v-1034h-1034z" />
</font>
</defs>
</svg>
