<?xml version="1.0" standalone="no"?>
<!DOCTYPE svg PUBLIC "-//W3C//DTD SVG 1.1//EN" "http://www.w3.org/Graphics/SVG/1.1/DTD/svg11.dtd" >
<svg xmlns="http://www.w3.org/2000/svg">
<metadata></metadata>
<defs>
<font id="longshoreregular" horiz-adv-x="1228" >
<font-face units-per-em="2048" ascent="1638" descent="-410" />
<missing-glyph horiz-adv-x="716" />
<glyph horiz-adv-x="0" />
<glyph horiz-adv-x="682" />
<glyph unicode=" "  horiz-adv-x="716" />
<glyph unicode="&#x09;" horiz-adv-x="716" />
<glyph unicode="&#xa0;" horiz-adv-x="716" />
<glyph unicode="!" horiz-adv-x="233" d="M0 84q0 -37 28 -62t68 -22q37 3 62.5 28.5t23.5 57.5q-2 34 -28.5 56.5t-63.5 21.5q-37 0 -63.5 -23t-26.5 -57zM31 322q0 -43 8 -76q5 -20 20 -31t37 -8q37 3 47 43q4 25 4 76q1 61 2.5 182t2.5 182q1 27 9 113.5t5 134.5q-6 109 -68 109q-63 -3 -63 -113 q-1 -52 -2 -157.5t-2 -158.5v-296z" />
<glyph unicode="&#x26;" horiz-adv-x="1216" d="M0 250q1 56 18.5 106t50.5 92.5t66 76t79 74.5q9 7 13 11q-27 61 -39 99q-45 139 33 254q23 32 49 47q33 20 68 29t61 7.5t48 -5.5t33 -9l12 -6q44 -12 76.5 -67.5t33.5 -122.5q-10 -97 -72 -168l-6 -6q-3 -3 -9 -9.5t-9 -9.5q-56 -52 -109 -82q68 -109 170 -233 q25 -29 40 -27.5t34 35.5q38 69 78 211q42 142 141 188q49 23 105 23t102 -27q60 -37 84.5 -99t6.5 -126.5t-73 -108.5q-44 -34 -91 -30.5t-87 41.5q-47 44 -20 96q31 63 88 39q4 -1 11 -4.5t11.5 -5t10.5 -2t10.5 2t7.5 9.5q21 37 -14 68t-72 28q-33 -3 -57.5 -32.5 t-32.5 -65.5q-44 -158 -117 -301q-16 -31 -10 -51t35 -39q97 -65 200 -68q60 0 91 -2q29 -2 46.5 -15t16.5 -42q-2 -99 -248 -56q-83 16 -174 76q-33 24 -62 23.5t-59 -29.5q-65 -62 -155 -80q-6 -2 -23 -2q-13 -3 -35.5 -5.5t-79 2t-98.5 23.5q-92 43 -135 123 q-43 81 -43 152zM143 319q-43 -144 82 -229l19 -10q72 -36 147 0q54 22 62 26q53 29 59 57t-31 75q-122 151 -190 258l-90 -80q-46 -54 -58 -97zM299.5 820q-2.5 -26 3 -52.5t14 -48.5t21.5 -49l2 -4q61 37 86 71l18 23q61 86 -8 153q-24 24 -48 21.5t-43 -19.5t-32 -45 q-11 -24 -13.5 -50z" />
<glyph unicode="(" horiz-adv-x="563" d="M38.5 620.5q-80.5 -239.5 10.5 -507.5q89 -265 334 -418q56 -31 84 6q35 40 -12 84l-88 74q-86 74 -145 172t-86 206t-11 226t78 225q33 60 81 110t117 107q3 2 13.5 10t14.5 11.5t11.5 10.5t12.5 14.5t8 15.5q14 31 -1 55.5t-48 24.5q-20 0 -60 -27 q-233 -160 -313.5 -399.5z" />
<glyph unicode=")" horiz-adv-x="583" d="M6 1014q-16 -32 12 -60q8 -8 62 -45q125 -89 200 -184.5t91 -224.5q47 -391 -256 -645q-12 -11 -43 -34t-47 -38q-32 -29 -9 -70q24 -38 68 -20q72 33 100 57q309 259 318 672q-9 102 -29.5 182t-69.5 150q-108 158 -278 270q-38 23 -64 23q-38 0 -55 -33z" />
<glyph unicode="," horiz-adv-x="296" d="M0 102q0 -35 20 -53.5t56 -30.5q76 -26 26 -94q-8 -11 -26 -28.5t-25 -26.5q-34 -42 2 -78q32 -35 78 -4q55 41 84.5 92.5t30.5 130.5q3 53 -74 137q-50 56 -121 29q-51 -23 -51 -74z" />
<glyph unicode="." horiz-adv-x="233" d="M0 84q0 -37 28 -62t68 -22q37 3 62.5 28.5t23.5 57.5q-2 34 -28.5 56.5t-63.5 21.5q-37 0 -63.5 -23t-26.5 -57z" />
<glyph unicode="/" d="M2 -229q-5 -20 3.5 -37.5t27.5 -24.5q44 -20 69 19q23 38 33 67q56 135 137 338q248 608 306 754q7 17 16 49t10 35q3 56 -31 71q-48 17 -75 -28q-22 -42 -37 -86q-19 -61 -43 -122t-61.5 -151.5t-49.5 -119.5l-282 -691q-18 -41 -23 -73z" />
<glyph unicode="0" horiz-adv-x="858" d="M2 481q-9 -139 37 -276q84 -239 360 -252q108 -4 212.5 75t140.5 189q34 117 47 205q35 221 -72 418q-124 227 -379 204q-210 -22 -299 -247q-53 -134 -47 -316zM121 492q-9 135 41 262q59 162 207 170q159 11 245 -133q67 -108 70 -246q3 -197 -72 -332 q-69 -131 -217 -131q-158 0 -225 129q-56 105 -49 281z" />
<glyph unicode="1" horiz-adv-x="573" d="M0 961q0 -40 57 -56q28 -4 38.5 -4.5t38 2.5t38.5 4q68 3 68 -59v-39q3 -96 -9 -318t-2 -341q5 -55 -57 -62q-57 0 -86 -2q-45 -7 -51 -51q-6 -45 39 -58q64 -26 123 -18q76 10 229 10q1 0 22.5 2t32.5 4q33 7 39 39q9 38 -24 58q-22 11 -54 18q-63 12 -74.5 25.5 t-11.5 79.5q-2 121 2 364v191q0 24 1 67t1 78t-2 66q-2 46 -17.5 66.5t-49.5 19.5q-87 -4 -238 -27q-53 -7 -53 -59z" />
<glyph unicode="2" horiz-adv-x="823" d="M8 801q-22 -64 6.5 -121t87.5 -74q72 -18 99 35q30 58 -23 102q-36 29 -38 49.5t28 53.5q63 68 181 76t192 -50q85 -67 84 -149t-88 -148q-58 -44 -146 -71q-94 -26 -205 -101q-95 -60 -140.5 -163t-20.5 -199q9 -29 21 -46t36 -24q36 -11 74 33q57 65 92 84t71.5 6.5 t102.5 -65.5q48 -35 84 -47q102 -41 199 30q63 49 67 136.5t-53 134.5q-35 29 -74.5 29t-64.5 -29q-46 -58 28 -121q3 -2 9 -6.5t8.5 -7t7 -8t3 -9.5t-2.5 -12q-17 -32 -58 -29q-12 1 -22.5 3.5t-21.5 10t-17 11.5t-19.5 15.5t-17.5 14.5q-85 71 -168 84q-25 3 -70.5 -8 t-68.5 -12q66 109 205 158q172 62 256 129q107 88 117.5 203t-78.5 219q-65 75 -162 106.5t-187.5 20t-160.5 -53.5q-107 -67 -152 -190z" />
<glyph unicode="3" horiz-adv-x="819" d="M0.5 232.5q2.5 -107.5 97.5 -181.5q98 -75 235.5 -82t246.5 58q233 139 178 415q-28 161 -178 203q-66 19 -70.5 35.5t41.5 67.5q10 10 40.5 41t45.5 49q71 79 92 110q22 29 14.5 52.5t-41.5 37.5q-24 9 -86 9q-199 -3 -401 -3q-9 -1 -28.5 -1t-28.5 -1q-50 -3 -69.5 -21 t-20.5 -67q-2 -36 -2 -219q4 -63 57 -63q48 0 55 57q8 55 8 123q3 72 72 72h262q-1 -14 -5.5 -26.5t-8 -17.5t-13 -15t-10.5 -11q-31 -36 -96 -106.5t-96 -106.5q-38 -44 -23 -78q16 -41 80 -37q12 2 43.5 7t55 7.5t45.5 0.5q98 -14 133 -80q26 -53 17 -136.5t-46 -127.5 q-72 -88 -194 -105t-214 47q-17 12 -25 18.5t-17.5 19t-12.5 26.5q-2 9 -2.5 12t-1.5 10.5t-0.5 10.5t2.5 7.5t6.5 5.5t11.5 1.5t17 -2.5q65 -16 88 63q16 59 -47 95q-54 33 -117 -7q-92 -59 -89.5 -166.5z" />
<glyph unicode="4" horiz-adv-x="917" d="M10 377q-35 -76 43 -94q13 -4 66 -4q57 -1 168.5 -1.5t167.5 -1.5q62 0 80.5 -20t13.5 -82q-3 -57 -55 -65l-56 -13q-54 -14 -51 -59q3 -28 22 -42.5t46 -12.5q151 11 315 2q24 -1 39 13.5t18 39.5q5 47 -51 57q-30 7 -55 15q-33 12 -43.5 35t-7.5 73q6 62 69 62 q45 0 68 2q54 7 57 53q5 45 -51 57q-11 2 -33 4t-24 2q-60 6 -73 20.5t-15 74.5v229q0 21 0.5 60.5t0.5 71.5t-1 60q0 10 0.5 28t0.5 30t-3 26t-12 25t-25 18q-13 6 -26 5.5t-22.5 -3t-21.5 -11.5t-17.5 -14t-18 -18t-15.5 -16q-253 -247 -463 -549q-31 -46 -35 -57z M205 446q27 51 156 195t186 184v-366q0 -59 -60 -62q-29 0 -81.5 -0.5t-95.5 -0.5t-81 1q-52 0 -24 49z" />
<glyph unicode="5" horiz-adv-x="817" d="M3 274q-13 -70 30 -133q52 -76 139 -110q192 -70 383 8q113 47 171.5 158.5t33.5 234.5t-111 194t-215 74q-70 0 -133 -14q-6 -1 -19.5 -5t-22 -6t-21.5 -1.5t-25 4.5q-4 41 -4.5 55.5t2.5 56t4 56.5q3 59 68 65q26 2 80.5 7.5t80.5 7.5q36 2 52 2.5t35.5 -4t25.5 -8 t18 -21.5t17 -32t18 -50q20 -59 70 -49q23 4 34 22t9 43q0 6 -12 84l-10.5 55.5t-12.5 37t-16.5 24.5t-27 11.5t-39 6t-56.5 -0.5q-55 -2 -344 -17q-53 -2 -74 -20t-27 -70q-24 -190 -36 -381q-3 -45 23.5 -62t70.5 1q20 7 51 26q65 45 190 56q95 7 155 -38.5t79 -138.5 q17 -86 -22.5 -156.5t-122.5 -99.5q-122 -45 -256 -6q-92 22 -109 88q6 12 15 16t21 4.5t17 2.5q46 18 49 65q3 48 -36 74q-57 39 -115 -4q-62 -43 -75 -113z" />
<glyph unicode="6" horiz-adv-x="858" d="M2.5 548q-9.5 -113 12.5 -221.5t73 -187.5q67 -103 173.5 -151t222 -31.5t206.5 96.5q79 69 105.5 171t-6.5 200t-117 154q-98 68 -232.5 69.5t-246.5 -74.5q-4 -3 -12 -10t-13.5 -11.5t-16 -8.5t-22.5 -4q15 194 160 321q60 49 135 60.5t133 -19.5q46 -25 54.5 -50 t-15.5 -75q-28 -57 18 -94q46 -35 97 6q38 28 45 92q6 76 -45.5 149t-132.5 97q-198 63 -369 -72q-91 -73 -144 -183t-62.5 -223zM169.5 349.5q17.5 60.5 66.5 103.5q84 78 190 75q57 -4 86 -10q141 -41 164 -153q28 -149 -90 -238q-65 -50 -149 -52t-157 42.5t-106 120.5 q-22 51 -4.5 111.5z" />
<glyph unicode="7" horiz-adv-x="782" d="M0 834q0 -120 2 -144q0 -40 41 -47q42 -5 61 35q8 18 12 54.5t5 39.5q9 47 37 81t64 48.5t79 8t80 -35.5q55 -46 117 -63q59 -15 20 -61q-87 -112 -127 -156q-139 -157 -158 -393q-4 -50 23 -142q6 -20 21 -31t36 -8q42 3 49 50q6 48 3 96q-19 213 149 389 q11 14 34.5 39.5t35.5 38.5q92 109 137 250q21 73 -2 123q-19 37 -50.5 38.5t-54.5 -32.5q-4 -6 -9 -18.5t-7 -16.5q-23 -41 -45.5 -47.5t-60.5 16.5q-8 5 -48 35q-132 103 -256 41q-43 -19 -79 4q-43 28 -71 15t-34 -64q-3 -21 -3 -45t1.5 -53t1.5 -45h-4z" />
<glyph unicode="8" horiz-adv-x="854" d="M6 356.5q-21 -97.5 15 -189t118 -142.5q110 -70 266.5 -65.5t260.5 81.5q94 69 124 175.5t-14 207.5q-9 20 -21.5 38t-32.5 36.5t-30.5 27t-36.5 29.5q-42 30 -42.5 42.5t38.5 45.5q86 75 79.5 176t-101.5 164q-111 69 -213 61q-137 6 -240 -63q-83 -57 -96 -146t49 -161 q7 -8 24.5 -19t27.5 -23t7 -28q-2 -16 -13.5 -28t-30.5 -24t-27 -20l-17 -10q-73 -68 -94 -165.5zM135 229q-37 159 94 238q19 11 38.5 20.5t53.5 23t39 15.5q35 15 56 6q13 -6 49.5 -20.5t54.5 -22.5t45 -23t47 -32q67 -55 70 -129t-59 -137q-89 -92 -236 -82q-51 0 -78 4 q-69 7 -115.5 44.5t-58.5 94.5zM233 868q56 61 178 58t175 -66q24 -29 22.5 -62t-30.5 -57q-52 -46 -179 -69q-3 1 -16.5 4.5t-18 5t-16.5 5t-17.5 5.5l-16.5 6t-17 7t-15.5 7.5t-16 9t-14.5 10t-15 11.5q-66 59 -3 125z" />
<glyph unicode="9" horiz-adv-x="813" d="M11 762.5q-23 -92.5 1 -176.5q40 -138 157 -205t263 -35q116 28 197 96q0 -12 0.5 -24t0.5 -18v-11.5t-1 -9.5q-7 -42 -17 -74q-24 -74 -85.5 -125.5t-135.5 -64t-151 13.5q-44 18 -51 34.5t14 59.5q21 49 -19 86q-41 35 -88 10q-47 -21 -57 -83q-9 -60 22 -115t95 -88 q75 -39 162.5 -43.5t167.5 23t146 96t95 165.5q75 249 -6 521q-20 66 -57 116t-84.5 79.5t-104 44t-115.5 12t-118 -20.5q-83 -26 -145.5 -98.5t-85.5 -165zM121 666q-3 109 69 183.5t181 74.5q98 10 169.5 -63.5t71.5 -155.5q0 -102 -77 -175t-185 -75q-92 0 -159.5 62.5 t-69.5 148.5z" />
<glyph unicode=":" horiz-adv-x="229" d="M0 76q2 -34 29.5 -56.5t64.5 -19.5q38 1 62 26t22 60q-1 34 -27.5 55t-66.5 21q-37 -2 -61 -26.5t-23 -59.5zM0 545q2 -34 29.5 -56.5t64.5 -19.5q38 1 62 26t22 60q-1 34 -27.5 55t-66.5 21q-37 -2 -61 -26.5t-23 -59.5z" />
<glyph unicode=";" d="M0 545q2 -34 29.5 -56.5t64.5 -19.5q38 1 62 26t22 60q-1 34 -27.5 55t-66.5 21q-37 -2 -61 -26.5t-23 -59.5zM14 133q-47 -69 49 -121q52 -26 57 -49t-32 -69l-33 -37q-32 -44 -2 -76q38 -38 80 -8q107 80 121 196q-13 119 -94 183q-34 27 -79 20.5t-67 -39.5z" />
<glyph unicode="?" d="M4 815q-17 -91 39.5 -164.5t138.5 -66.5q36 5 59.5 27t22.5 51q-6 63 -78 69q-99 9 -51 100q25 51 76 70q133 48 246 17q64 -16 104 -64q57 -73 44.5 -151.5t-91.5 -129.5q-4 -3 -12 -8q-108 -70 -151 -117q-8 -8 -15 -16q-74 -87 -66 -184q8 -64 60 -64q30 -1 43.5 16 t11.5 46q-1 27 11 54t21.5 38.5t35.5 40.5q18 19 41 35.5t53 35.5t45 29q168 123 133 307q-40 192 -238 250q-36 12 -122 8h-86q-108 -12 -184 -75.5t-91 -153.5zM238 23q2 -32 28.5 -53.5t63.5 -20.5q37 2 60 26t22 60q-2 35 -27.5 59t-60.5 23q-36 -2 -62.5 -30.5 t-23.5 -63.5z" />
<glyph unicode="A" horiz-adv-x="860" d="M6 117q9 34 30.5 95.5t24.5 70.5q23 57 283 673q1 2 6.5 17.5t7.5 19.5l8 16t11 16.5t13 11t17.5 8.5t20.5 2q15 -1 26 -5.5t19 -17t11.5 -19t10 -26.5t7.5 -23q144 -365 262 -710l-10 35l22 -70l-2 2q29 -95 29 -96q6 -19 6 -34q0 -35 -33 -48q-12 -4 -22 -4 q-37 0 -60 51l-12 35l-53 145q-25 80 -48.5 97.5t-105.5 17.5h-182q-63 0 -82 -53q-16 -40 -27 -62v-2l-55 -143q-2 -5 -4.5 -11.5t-5.5 -13.5t-4 -10q-22 -52 -58 -52q-11 0 -24 5q-33 12 -33 47q0 15 6 35zM309 561q-4 -14 -4 -25q0 -36 47 -38q41 -2 72.5 -2t52.5 2 q41 1 49 14q4 5 3 15q0 14 -7 36q-38 103 -98 250q-69 -114 -115 -252z" />
<glyph unicode="B" horiz-adv-x="806" d="M0 867v26.5v24.5q4 75 29 104q18 21 53 25h4q47 0 297 -5q63 0 94 -4q70 -9 123 -46q54 -37 80 -89q26 -50 25 -112q0 -68 -35 -132q-14 -23 -21 -32q-29 -43 -29 -57t39 -46q72 -63 91 -164q7 -32 6 -63q0 -69 -35 -129q-51 -86 -158 -123q-65 -20 -137 -33 q-44 -10 -125 -10h-90q-55 0 -95 19.5t-59 48t-29.5 56.5t-11.5 48l-2 19q-8 81 -9 177v79q0 61 0.5 128t0.5 117v60q-1 18 -3 52t-3 61zM123 862q0 -28 1 -82t1 -82q0 -63 65 -63q154 0 230 2q52 3 104 41q53 40 53 105q0 19 -4 40q-19 86 -104 95q-25 3 -154 8 q-21 0 -65.5 -2t-67.5 -2q-56 -3 -59 -60zM125 422q-1 -13 -1 -30q0 -71 17 -208q9 -60 70 -63q23 -1 45 -1q146 0 266 40q105 35 111 131v12q0 85 -78 141q-85 60 -185 60q-20 0 -40 -2h-125q-51 -3 -64 -16.5t-16 -63.5z" />
<glyph unicode="C" horiz-adv-x="878" d="M57 258q-58 137 -58 269q0 187 116 362q45 67 117 106.5t146 47.5q28 3 56 3q46 0 91 -8q72 -14 124 -47q58 -37 74 -57q70 -89 94 -195q6 -18 6 -39q2 -6 2 -20q-3 -22 -19 -36.5t-38 -14.5t-38 14.5t-17 36.5q-7 43 -35 104q-43 88 -132 122q-54 20 -108 21 q-34 -1 -68 -9q-87 -22 -139 -80q-57 -66 -85 -172q-19 -71 -19 -146q0 -38 5 -76q14 -116 71 -200q45 -66 133 -94q45 -15 91 -15q43 0 89 13q94 27 146 110q22 37 34 76q2 5 7 20.5t10 26.5t12 18q17 17 43 17q23 0 39.5 -14t19.5 -35v-5v-2q0 -2 -1 -6t-1 -6v-6 q-49 -207 -209 -285q-90 -47 -185 -47q-106 0 -220 58q-95 50 -154 190z" />
<glyph unicode="D" horiz-adv-x="903" d="M0 848q1 -61 8.5 -172.5t9.5 -159.5v-45v-91q-2 -88 -2 -116v-86q5 -172 97 -172h93q47 -2 69 -2h17q18 0 44 1q40 1 96 5q240 13 342 201q80 150 80 300q0 153 -84 306q-59 111 -156.5 170.5t-226.5 59.5h-201q-31 0 -46 -3.5t-44 -3.5q-4 0 -11 -0.5t-24.5 -10 t-30.5 -27.5q-12 -18 -22 -58q-8 -33 -8 -77v-19zM123 817q-2 19 -2 35q1 38 13 52q18 20 85 22h98q25 3 48 3q163 0 266 -122q81 -95 95 -254q2 -28 3 -54q0 -124 -53 -214q-84 -142 -260 -158q-32 -4 -98 -4q-44 0 -103 2q-51 2 -65 17q-10 11 -11 39q0 12 2 26 q7 76 7 123v11q-2 49 -6 133q-4 68 -3 113v19q0 71 -16 211z" />
<glyph unicode="E" horiz-adv-x="724" d="M0 866q0 -20 2 -28v-50q1 -7 2 -21.5t2 -21.5q0 -9 1 -27t1 -26q1 -8 2 -23t2 -22q0 -8 1 -24.5t1 -24.5q2 -12 2 -39q2 -16 2 -51v-78v-29q0 -8 -1 -24.5t-1 -24.5v-53v-37q-2 -16 -2 -49v-33q0 -38 9 -78q7 -32 22 -49q18 -24 49 -33q19 -8 45 -8q40 -4 54 -8 q5 0 15 -1t15 -1h15q10 2 28 2q35 0 51 2h29h37h39h123h24q25 0 41 8q27 12 47 35q15 18 17 33v12q-1 2 -2 5t-2 5q-5 13 -21 25q-19 11 -49 14q-19 0 -51 -4q-24 -4 -68 -8h-32q-16 -2 -48 -2q-12 -2 -39 -2q-7 0 -22.5 -1t-22.5 -1h-43q-24 0 -36 -2h-37q-4 0 -12 1t-11 1 q-30 9 -41 37q-1 4 -2 12t-2 12v50v170q0 20 2 30q4 19 15 27q6 6 10 6q10 2 28 2q8 2 27 2l35 4h41q16 0 24 2q7 0 21.5 1t21.5 1q5 0 15.5 1t15.5 1q7 1 21.5 2t21.5 2q23 0 33 2q21 3 45 13q20 12 25 26q5 13 2 29q-3 24 -25 37q-20 10 -39 10q-16 2 -51 2q-23 2 -46 2 l-46 -2h-39q-14 -2 -43 -2h-49q-1 0 -13 2t-18 4q-25 9 -31 35q-2 8 -2 21v39v53v116q0 15 2 23q6 27 33 37q16 4 27 4h53h51q8 0 24.5 1t24.5 1h31h35h49h92h29h28q21 3 39 21q17 20 17 47q0 13 -6 22q-13 23 -48 37q-2 1 -7.5 2t-8.5 2h-25q-6 -2 -14 -2q-4 0 -14 -1 t-15 -1h-12q-8 -1 -25 -2t-26 -2h-33q-6 0 -20 -1t-21 -1h-28q-6 -1 -14 -1t-17 0.5t-14 0.5q-20 -2 -60 -2h-49q-21 0 -31 2h-26q-49 -4 -74 -12q-29 -11 -41 -25q-14 -11 -25 -33q-7 -17 -14 -51q0 -4 -1 -13t-1 -14v-45v-2z" />
<glyph unicode="F" horiz-adv-x="720" d="M0 815q1 -8 2 -25.5t2 -25.5q0 -25 2 -37q0 -8 1 -23.5t1 -23.5q0 -15 2 -23q0 -35 2 -51v-18q0 -9 1 -28t1 -28v-22v-53q2 -17 2 -34.5t-2 -35.5v-78v-92v-18v-72q0 -29 2 -45q3 -30 15 -53q17 -31 45 -39q6 0 10 -2h12q28 6 37 30q6 12 6 37v33q0 7 -1 20.5t-1 20.5 q-1 8 -2 24.5t-2 24.5v43v41v53v76q0 17 2 27q7 18 23 26h2q8 2 26 2q15 3 29 3q5 1 16.5 2t16.5 2h43q16 0 24 2q7 0 20.5 1t20.5 1q5 0 15.5 1t15.5 1q7 1 21.5 2t21.5 2q23 0 35 2q26 3 45 14q18 9 25 29q2 8 2 22q-3 27 -27 39q-14 11 -37 11q-9 1 -26.5 2t-26.5 2 q-59 0 -90 -2h-39q-14 -2 -45 -2h-47q-2 0 -12.5 2t-16.5 4q-22 7 -29 22q-3 4 -8 29v29v71v113q0 12 2 20q7 28 33 37q12 6 27 6h55h49q16 2 51 2h29h35h49h92h31h26q19 3 34.5 15.5t19.5 30.5q2 6 2 16v8v8q-3 13 -13 23q-19 22 -47 28q-4 0 -10 3h-25q-6 -3 -14 -3 q-12 -2 -37 -2q-8 -2 -24 -2q-9 0 -26 -1t-25 -1q-25 0 -37 -2h-45h-33q-7 -1 -20 -1t-19 -1h-31h-24q-40 0 -58 2q-48 0 -73 -6q-33 -3 -58 -22q-25 -16 -35 -45q-9 -20 -12 -50q-1 -5 -2 -15.5t-2 -16.5v-62v-4z" />
<glyph unicode="G" horiz-adv-x="878" d="M57 258q-58 137 -58 269q0 186 116 362q45 67 117 106.5t146 47.5q28 3 56 3q46 0 91 -8q72 -14 124 -47q58 -37 74 -57q70 -89 94 -195q6 -18 6 -39q2 -6 2 -20q0 -57 -10 -73q-12 -20 -41 -21q-32 -1 -45.5 18t-13.5 51q-3 58 -37 129q-43 89 -132 122q-54 21 -108 21 q-34 0 -68 -9q-87 -21 -139 -80q-57 -65 -85 -172q-19 -70 -19 -146q0 -38 5 -76q14 -117 71 -200q45 -66 133 -94q44 -15 91 -15q44 0 89 13q94 27 146 110q18 32 28 55l-201 6q-23 3 -40 9q-35 14 -35 49q0 39 30 51q12 6 41 10q37 2 74 2q100 0 207 -12q56 -4 61 -51v-6 q0 -19 -2 -29q-49 -207 -209 -285q-90 -47 -185 -47q-106 0 -220 58q-95 50 -154 190z" />
<glyph unicode="H" horiz-adv-x="804" d="M0 834v8q6 131 6 133q4 65 51 72h6q11 1 21 -3q12 -4 19.5 -16.5t11 -22t8.5 -26.5v-252q0 -23 6 -47q13 -57 66 -57q62 0 186.5 1t187.5 1q61 0 64 67v41q-2 42 -2 87q0 74 6 155q4 65 51 72h6q12 1 22 -3q12 -4 19 -16.5t10.5 -22t8.5 -26.5v-313q0 -2 -1 -6.5t-1 -6.5 q0 -149 2 -227v-150v-30v-133q-6 -46 -6 -47q-12 -38 -50 -41q-38 0 -53 34q-8 28 -8 47q-6 83 -6 158q0 60 4 113q0 27 -2 39q-1 54 -16 69t-68 17q-25 1 -54 1t-64 -0.5t-54 -0.5h-172q-66 0 -66 -66v-200h-2v-123q0 -26 -6 -47q-9 -38 -49 -41q-39 0 -51 34q-7 17 -11 47 q-5 65 -5 149q0 42 1 89q-1 50 -4 149.5t-4 149.5q-2 6 -2 16q-6 85 -6 175z" />
<glyph unicode="I" horiz-adv-x="178" d="M0 270l2 430q-2 34 -2 69t2 69v6q4 90 8 133q7 65 53 70h8q24 0 35 -16q13 -19 21 -54v-729l-8 -137q0 -27 -6 -48q-12 -35 -50 -38q-39 0 -51 36q-8 19 -8 45q-4 55 -4 164z" />
<glyph unicode="J" horiz-adv-x="782" d="M7 206q20 -88 89 -145q90 -77 240 -77q24 0 49 2q202 15 291 186q53 106 53 221q0 327 -2 393q4 49 4 90q0 133 -46 165q-9 6 -17 6h-179q-25 0 -57 -7q-40 -10 -43 -45v-5q0 -31 33 -48q11 -5 24.5 -8t21.5 -3.5t25.5 -1.5t22.5 -1q62 -4 76 -19.5t16 -79.5 q2 -74 2 -221h2v-182q0 -98 -34 -176q-46 -104 -167 -140q-44 -13 -85 -13q-71 0 -131 40q-44 27 -68 90q-8 22 -8 41q0 33 24 58q8 9 18 11t15.5 0.5t19.5 -8t17 -7.5q14 -5 27 -5q36 0 63 39q10 17 10 35q0 26 -20 53q-29 42 -79 42q-6 0 -13 -1q-123 -9 -176 -112 q-25 -52 -25 -108q0 -29 7 -59z" />
<glyph unicode="K" horiz-adv-x="976" d="M0 242q0 10 2 14q0 32 4 90v27q0 83 -4 332q-2 34 -2 68.5t2 70.5v14q4 78 8 119q8 65 53 70h8q24 0 35 -16q13 -19 21 -54l-4 -189l2 -217q14 -19 47 7q90 76 190 163q2 6 11 15q115 124 229 219q30 22 54 22q18 0 34 -12q17 -14 19 -32.5t-3 -29t-18 -32.5l-186 -178 l-62 -58l-32 -28q-4 -9 -4 -19q0 -25 26 -55q67 -79 161.5 -210t182.5 -242.5t178 -196.5q63 -59 122 -98t128 -56q42 -11 82 -10q74 0 139 37q51 27 64 78q9 43 36 57t60 -2q38 -16 47 -48q2 -9 2 -17q0 -25 -18 -54q-101 -148 -287 -170q-25 -3 -51 -3q-149 0 -305 114 q-183 131 -342 358q-98 137 -289 381q-24 30 -37.5 37t-36.5 -2l-20 -19q-65 -41 -96 -90q-16 -27 -20 -64q-2 -17 -1 -33q0 -18 2 -36q0 -56 -12 -170q-6 -46 -6 -47q-13 -36 -52 -39q-39 0 -51 35q-3 12 -8 47q-2 51 -2 152zM0 242z" />
<glyph unicode="L" horiz-adv-x="632" d="M0 68q0 38 47 53q10 3 30.5 6t26.5 4q52 8 63.5 20t12.5 64q0 42 -1 125t-1 125q0 57 1 172t1 172h2q0 39 4 113l-90 4q-26 0 -47 6q-36 13 -39 49q0 39 35 51q14 5 47 10q35 2 69.5 2t69.5 -2q10 5 13 5q18 0 26 -5q92 -4 138 -8q31 -4 49.5 -15t21.5 -38 q1 -16 -3.5 -27.5t-16 -18t-22 -10t-27.5 -7.5l-103 2l-6 -256q0 -5 -2 -7v-432v-6q1 -43 25 -99q26 -60 66 -114t80 -101.5t68 -75.5l29 -28q129 -122 250 -153q43 -11 84 -11q74 0 137 37q54 26 64 78q10 43 36.5 57t59.5 -2q38 -15 48 -47q3 -9 2 -19q0 -24 -17 -52 q-101 -148 -287 -170q-27 -4 -54 -4q-151 0 -304 114q-177 129 -342 359q-14 11 -41.5 16.5t-48.5 5.5h-21q-51 0 -76 4q-57 7 -57 54z" />
<glyph unicode="M" horiz-adv-x="997" d="M0 829q0 60 7 104.5t16.5 65.5t19 33t16.5 14l7 1q26 -1 43.5 -3.5t31.5 -11t22 -15t17.5 -25t14.5 -31.5t16.5 -45t21.5 -56q16 -41 58 -140t70 -171.5t49 -142.5q27 -83 61 -125q11 11 19 25t11 22t8.5 27.5t6.5 23.5q99 306 205 536q47 107 127 129q4 0 11 -0.5 t24 -13t30 -36t23 -76.5q10 -48 10 -114v-13q0 -89 -1 -268.5t-1 -268.5l-4 -148q-4 -34 -8 -47q-13 -36 -49 -39q-40 0 -52 35q-8 21 -8 47q-3 57 -3 110q0 72 5 138q0 60 1 179t1 178q0 6 1 22.5t0.5 26t-3.5 24t-10 27.5q-8 -7 -14 -14t-11 -17l-8 -16t-7.5 -18.5 t-6.5 -16.5q-41 -99 -102.5 -283.5t-85.5 -248.5q-25 -67 -31 -80q-24 -43 -57 -47h-5q-30 0 -59 36q-49 59 -100 185q-30 82 -100.5 261t-100.5 261q-4 0 -4 -15.5t-4 -15.5v-352v-4l2 -4l2 -316q0 -2 -2 -20t-4 -27q-9 -36 -49 -39h-5q-32 0 -47 33q-6 14 -10 47 q-5 68 -5 156q0 38 1 80q0 331 -2 497z" />
<glyph unicode="N" horiz-adv-x="823" d="M-1 832q0 14 3.5 50.5t12.5 63.5t31 48t54 18q27 -3 52.5 -25t40 -43.5t38.5 -62.5q66 -113 197.5 -322.5t155.5 -247.5q2 -3 7 -11t8 -12.5t9.5 -9.5t14.5 -6q7 6 10 15t3.5 15t-0.5 17t-1 15q3 205 3 342q0 68 -1 119h4q0 101 8 180q4 67 51 72h6q12 1 22 -3 q12 -4 19.5 -17t10.5 -22t8 -28l4 -170v-31l2 -14l-2 -2q0 -89 -11 -310q-8 -162 -9 -270q0 -39 2 -71q0 -15 -4 -39q-14 -48 -48 -58q-7 -2 -13 -1q-27 0 -52 30q-94 116 -160 215q-18 29 -289 463q-2 3 -9.5 18t-11 20t-12.5 13t-20 12q-5 -4 -7.5 -8.5t-3.5 -10t-1.5 -9 t0 -10.5t0.5 -9v-420l6 -227q-6 -46 -6 -47q-10 -38 -47 -41h-6q-34 0 -48 33q-6 14 -10 47q-4 38 -8 106v4q-2 48 -2 95t2 94q0 287 -2 430q-1 9 -1 23z" />
<glyph unicode="O" horiz-adv-x="974" d="M0 514q0 -166 60 -286t184 -203q108 -72 227 -72q34 0 69 6q158 26 261 156q59 76 83.5 163.5t35.5 204.5q3 32 3 64q0 172 -89 303q-66 98 -168 148q-100 50 -201 49h-4q-104 -1 -205 -54t-166 -151q-90 -132 -90 -328zM119 506q0 160 70 265t200 142q44 11 87 11 q30 0 58 -6q70 -12 130 -58.5t90 -114.5q52 -114 52 -230q0 -153 -91 -310q-40 -69 -115 -103q-57 -26 -120 -26q-20 0 -40 2q-85 10 -153 63q-122 92 -148 228q-20 97 -20 131v6z" />
<glyph unicode="P" horiz-adv-x="759" d="M0 856v8q0 16 2 42q3 36 12.5 62.5t33.5 49.5t61 24q48 3 94 3q113 0 217 -19q101 -20 168.5 -67.5t99.5 -135.5q22 -54 22 -107q0 -15 -2 -31q-8 -69 -39 -126t-88.5 -97.5t-129.5 -51.5q-6 -1 -18.5 -2t-18.5 -2l-148 -13q-7 0 -21.5 -1t-21.5 -1q-52 0 -67.5 -15.5 t-18.5 -68.5v-43v-35h-2l-2 -125q-5 -40 -8 -47q-12 -39 -49 -39h-5q-34 0 -46 35q-9 21 -9 47q-3 48 -3 96t3 95q-15 225 -15 425q0 60 1 118q-1 8 -2 22zM122 781q0 -57 1 -58v-143q4 -63 55 -66q38 -4 83 -4q29 0 61 2q80 4 141 27q66 25 90.5 62.5t24.5 111.5 q0 71 -26.5 111t-90.5 63q-106 40 -223 40q-16 0 -31 -1q-51 -3 -66 -18.5t-18 -69.5q-1 0 -1 -25v-32z" />
<glyph unicode="Q" horiz-adv-x="993" d="M14 330q30 -154 143 -262t283 -111q39 0 58.5 -18t27.5 -60q19 -88 73.5 -136.5t135.5 -51.5h4q48 0 92 23q46 23 73 61.5t37 85.5q3 15 3 30q0 32 -14 62q-23 51 -64 51h-8q-58 -9 -65 -72q-2 -13 2 -38q5 -15 5 -27q0 -31 -30 -47q-16 -8 -32 -8q-28 0 -56 26 q-40 34 -40 87q0 50 40 79q62 42 107 95.5t70 109t36.5 107t13.5 102.5q0 152 -18 235.5t-70 167.5q-71 116 -166 173q-89 53 -177 53h-12q-94 -4 -182 -51t-153 -130q-132 -167 -132 -385q0 -72 15 -151zM162 274q-43 105 -43 208q0 150 94 294q89 139 248 142h8 q105 0 188 -80q109 -109 129 -302q4 -38 4 -73q0 -146 -69 -250q-23 -45 -59 -57q-22 70 -65.5 117.5t-96.5 64.5q-39 13 -80 13q-13 0 -26 -1q-54 -6 -102.5 -42t-78.5 -95q-7 1 -12.5 3.5t-10.5 7t-8 7.5t-6.5 10.5t-4.5 10t-4.5 12t-4.5 10.5zM340 160q1 29 27 48 q24 17 54 17h7q41 -1 66.5 -25.5t27.5 -62.5q0 -33 -18 -47t-60 -14q-50 0 -78 23q-26 21 -26 54v7z" />
<glyph unicode="R" horiz-adv-x="862" d="M0 856v8q0 16 2 42q3 36 12.5 62.5t33.5 49.5t61 24q48 3 94 3q113 0 217 -19q101 -20 168.5 -67.5t99.5 -135.5q22 -54 22 -107q0 -15 -2 -31q-8 -69 -39 -126t-88.5 -97.5t-129.5 -51.5q-6 -1 -18.5 -2t-18.5 -2h-8q30 -38 128 -172.5t167 -218t147 -156.5 q126 -123 250 -156q41 -10 80 -10q74 0 141 37q51 30 63 77q9 43 36 58.5t61 -0.5q39 -18 47 -50q2 -8 2 -17q0 -25 -19 -52q-98 -147 -286 -172q-24 -3 -48 -3q-151 0 -309 114q-178 127 -342 358q-91 129 -264 350q-6 0 -18.5 -1t-18.5 -1q-52 0 -67.5 -15.5t-18.5 -68.5 v-43v-35h-2l-2 -125q-5 -40 -8 -47q-12 -39 -49 -39h-5q-34 0 -46 35q-9 21 -9 47q-3 48 -3 96t3 95q-15 225 -15 425q0 60 1 118q-1 8 -2 22zM122 781q0 -57 1 -58v-143q4 -63 55 -66q38 -4 83 -4q29 0 61 2q80 4 141 27q66 25 90.5 62.5t24.5 111.5q0 71 -26.5 111 t-90.5 63q-106 40 -223 40q-16 0 -31 -1q-51 -3 -66 -18.5t-18 -69.5q-1 0 -1 -25v-32z" />
<glyph unicode="S" horiz-adv-x="786" d="M0 340q0 -4 -1 -11q1 -15 3 -43q4 -40 14.5 -78t41.5 -84.5t77 -80.5q77 -45 82 -47q99 -49 191 -49q118 0 225 80q81 61 99 155q5 25 4 50q0 68 -35 132q-48 88 -146 130q-43 20 -199 67q-96 27 -141 60q-74 51 -74 137q0 91 78 135q58 33 117 33q8 0 18 -1 q68 -6 124 -37q54 -30 88 -84q30 -48 30 -98v-12q-1 -10 -1 -21q0 -25 5 -55q7 -59 52 -59h7q25 1 38.5 18.5t13.5 40.5q2 26 2 51q0 35 -4 67q-7 54 -23 92t-36 69t-41 49t-38.5 30.5t-28.5 17.5l-12 5q-73 47 -180 47q-38 0 -80 -6q-97 -13 -160 -74.5t-83 -160.5 q-7 -31 -7 -60q0 -55 24 -105q36 -76 118 -126q92 -59 176 -72q112 -21 211 -88q59 -38 65 -110q1 -7 0 -13q0 -63 -47 -100q-81 -63 -165 -64q-56 0 -113 29q-40 20 -66 37t-53 43t-39 61q-10 30 -10 66v12q1 14 1 27q0 51 -13 78q-17 33 -47 33h-5q-33 -3 -43 -33 q-12 -36 -12 -58q0 -8 -2 -22z" />
<glyph unicode="T" horiz-adv-x="878" d="M0 993q0 27 26.5 37t75.5 12q53 2 318 2v3q159 0 315 -3q42 0 62.5 -8t27.5 -30q2 -5 2 -12q1 -6 -1 -16q-2 -14 -8 -24t-22.5 -18.5t-41.5 -9.5h-205q-7 1 -13 1q-56 0 -63 -57q-2 -27 -2 -77q-4 -117 -4 -143t3.5 -93t4.5 -143v-314q-6 -46 -6 -47q-12 -38 -49 -41 q-38 0 -53 35q-9 32 -9 47q-6 91 -6 187v-2q0 358 -2 538q0 71 -12 85q-10 11 -59 12q-11 0 -23 -1h-182q-3 0 -8 1t-18 6t-22.5 12.5t-17.5 23.5t-8 37z" />
<glyph unicode="U" horiz-adv-x="794" d="M0 404v49q0 73 4 137q2 43 3.5 178t8.5 209q4 65 52 70h7q18 0 29 -9q14 -11 19 -24t10 -37l-6 -246q-2 -94 -2 -282q0 -72 2 -107q5 -108 48.5 -165t131.5 -64q19 -2 37 -2q80 -1 140 33q72 40 102 135q26 80 32 166q4 53 5 121q0 42 -2 89q-3 99 -3 148v22q0 7 -0.5 40 t1 58t6.5 55.5t19 48.5t36 20h6q16 0 28 -9q14 -11 19 -24.5t10 -36.5v-174q0 -284 -4 -365q-5 -105 -31 -188t-87 -150q-89 -97 -243 -110q-21 -2 -41 -2q-127 0 -216 71q-81 65 -101 160q-18 83 -20 185z" />
<glyph unicode="V" horiz-adv-x="823" d="M4 958q-4 17 -4 30q0 38 33 52q14 6 25 6q12 0 22 -7q18 -13 35 -44l55 -188h2q77 -266 219 -596q58 147 72 190q86 256 139 418l51 174q6 10 10 16t11 14.5t13 12.5t14 7q6 2 13 2h4q10 -1 21 -5q33 -14 33 -55q0 -14 -4 -31q-41 -172 -92 -311q-9 -22 -14 -29 q-33 -96 -96 -276l-91 -260q-2 -5 -6.5 -19.5t-7 -21t-9 -17.5t-12.5 -16t-17 -9.5t-24 -4.5q-11 0 -19.5 2.5t-16 8.5l-12.5 10t-10.5 14.5t-7.5 15t-7.5 17.5t-6.5 16q-115 245 -247 647q-6 10 -9 20l-18 58q-35 133 -41 159z" />
<glyph unicode="W" horiz-adv-x="1089" d="M2 961q-2 13 -2 24q0 45 35 57q13 5 23 5q14 0 24 -9q17 -15 33 -47l43 -182q66 -252 80 -332q9 -58 32 -110q50 85 74 211q13 56 31 115t44.5 137.5t37.5 113.5q9 26 14 35q25 37 55 37v1q29 0 49 -38q11 -20 29 -80l123 -493q1 -3 2 -10.5t2.5 -12.5t3.5 -11t5 -11 t8 -9q21 -8 26 19q9 38 50 198.5t61 247.5l39 166q15 32 33 47t47 4q34 -14 34 -58q0 -11 -2 -24q-15 -92 -39 -188q-21 -96 -47 -198t-63.5 -240t-52.5 -197q-2 -6 -6 -23t-6 -25t-8 -22t-12.5 -20.5t-18 -12.5t-25.5 -6h-5q-15 0 -25 6q-12 6 -20.5 18.5t-12.5 24t-9 29.5 t-8 27q-34 103 -79 298t-60 251q0 2 -2 10.5t-4 12.5t-8 11t-15 13q-16 -61 -50 -180.5t-50 -180.5q-31 -131 -70 -249q0 -1 -4 -15.5t-8 -21.5q-22 -49 -59 -49h-3q-42 3 -53 49q-7 24 -20.5 73t-20.5 74q-23 87 -57.5 247.5t-48.5 217.5q-20 62 -31 115l-6 16h2 q-27 133 -29 144z" />
<glyph unicode="X" horiz-adv-x="890" d="M14 1028q12 12 24 16q6 2 12 3q6 0 14 -3q14 -5 22 -9t25 -15l116 -137q168 -194 172 -199q15 -16 30 -13t28 19l110 144l133 182q20 16 30.5 22.5t28.5 6.5t34 -15q16 -14 16 -35q0 -22 -18 -51q-40 -66 -99 -145v-2q-84 -112 -145 -191q-24 -28 -24 -56q0 -27 22 -56 l104 -138q52 -62 115 -149q25 -41 37 -57l20 -31q16 -28 16.5 -50.5t-16.5 -39.5q-15 -15 -33 -15h-1q-18 0 -30 8t-30 23l-55 76q-6 9 -19 26t-16 21l-86 119q-30 39 -80 100q-17 20 -34 20q-18 0 -36 -24l-26 -37q-3 -8 -13 -22.5t-12 -18.5l-198 -252q-18 -14 -31 -21 t-31 -6.5t-33 15.5q-16 16 -16 36q0 23 20 54l43 62l2 2q31 44 105 135q64 84 108 157q21 30 20 56t-28 53q-93 103 -172 197q-16 20 -26 30q-1 1 -35 41h4q-50 63 -59 76q-23 30 -23 54q0 19 14 34z" />
<glyph unicode="Y" horiz-adv-x="872" d="M16 942q-15 29 -15 51q0 24 17 39q16 14 34 14h2q18 -1 29 -8.5t30 -23.5l96 -142l2 2q72 -109 172 -256q15 -23 30 -23t29 21q97 139 158 230h2l109 164q14 12 22 18t21 12t24.5 3t24.5 -13q18 -16 18 -39q0 -22 -16 -49q-71 -127 -166 -252q-53 -79 -137 -198 q-24 -30 -33 -68l2 -2l16 -332q0 -33 -4 -49q-9 -39 -49 -45h-6q-36 0 -51 33q-9 23 -12 49q-10 90 -11 102q-2 16 -2 47q-4 74 -4 111q0 13 -1 37t-1 35q0 44 -31 90l-233 338z" />
<glyph unicode="Z" horiz-adv-x="892" d="M8 61q6 -13 15.5 -21t24.5 -11t23.5 -3.5t28.5 -0.5h355h278q83 0 88 67q-1 36 -59 48q-41 9 -82 9q-16 0 -33 -1l-57 -5h-305q-8 1 -21.5 0t-22 -0.5t-19.5 4t-19 11.5q0 16 2 18q252 332 381 481l223 261q10 12 12.5 15.5t10 15t9 18t1.5 17t-4 20.5q-7 19 -23 29 t-30 12t-37 2h-316q-45 0 -134 -1.5t-134 -1.5q-86 0 -96 -61l1 -15q15 -46 137 -46q20 0 44 1q7 0 14 1q109 2 326 2q33 0 41 -25l-127 -151q-174 -217 -471 -592q-11 -13 -17 -22.5t-12 -22.5q-5 -11 -4 -22q0 -15 8 -30z" />
<glyph unicode="[" />
<glyph unicode="]" />
<glyph unicode="^" />
<glyph unicode="_" horiz-adv-x="901" d="M0 53q0 -33 28.5 -48t92.5 -15h295v-2q216 0 325 2q54 0 82.5 17t26.5 48q0 31 -31.5 48.5t-81.5 11.5q-41 -5 -85 -6.5t-106 -2t-85 -0.5q-50 -1 -103 1t-127 7t-104 7q-62 3 -94.5 -15.5t-32.5 -52.5z" />
<glyph unicode="a" horiz-adv-x="860" d="M6 117q9 34 30.5 95.5t24.5 70.5q23 57 283 673q1 2 6.5 17.5t7.5 19.5l8 16t11 16.5t13 11t17.5 8.5t20.5 2q15 -1 26 -5.5t19 -17t11.5 -19t10 -26.5t7.5 -23q144 -365 262 -710l-10 35l22 -70l-2 2q29 -95 29 -96q6 -19 6 -34q0 -35 -33 -48q-12 -4 -22 -4 q-37 0 -60 51l-12 35l-53 145q-25 80 -48.5 97.5t-105.5 17.5h-182q-63 0 -82 -53q-16 -40 -27 -62v-2l-55 -143q-2 -5 -4.5 -11.5t-5.5 -13.5t-4 -10q-22 -52 -58 -52q-11 0 -24 5q-33 12 -33 47q0 15 6 35zM309 561q-4 -14 -4 -25q0 -36 47 -38q41 -2 72.5 -2t52.5 2 q41 1 49 14q4 5 3 15q0 14 -7 36q-38 103 -98 250q-69 -114 -115 -252z" />
<glyph unicode="b" horiz-adv-x="806" d="M0 867v26.5v24.5q4 75 29 104q18 21 53 25h4q47 0 297 -5q63 0 94 -4q70 -9 123 -46q54 -37 80 -89q26 -50 25 -112q0 -68 -35 -132q-14 -23 -21 -32q-29 -43 -29 -57t39 -46q72 -63 91 -164q7 -32 6 -63q0 -69 -35 -129q-51 -86 -158 -123q-65 -20 -137 -33 q-44 -10 -125 -10h-90q-55 0 -95 19.5t-59 48t-29.5 56.5t-11.5 48l-2 19q-8 81 -9 177v79q0 61 0.5 128t0.5 117v60q-1 18 -3 52t-3 61zM123 862q0 -28 1 -82t1 -82q0 -63 65 -63q154 0 230 2q52 3 104 41q53 40 53 105q0 19 -4 40q-19 86 -104 95q-25 3 -154 8 q-21 0 -65.5 -2t-67.5 -2q-56 -3 -59 -60zM125 422q-1 -13 -1 -30q0 -71 17 -208q9 -60 70 -63q23 -1 45 -1q146 0 266 40q105 35 111 131v12q0 85 -78 141q-85 60 -185 60q-20 0 -40 -2h-125q-51 -3 -64 -16.5t-16 -63.5z" />
<glyph unicode="c" horiz-adv-x="878" d="M57 258q-58 137 -58 269q0 187 116 362q45 67 117 106.5t146 47.5q28 3 56 3q46 0 91 -8q72 -14 124 -47q58 -37 74 -57q70 -89 94 -195q6 -18 6 -39q2 -6 2 -20q-3 -22 -19 -36.5t-38 -14.5t-38 14.5t-17 36.5q-7 43 -35 104q-43 88 -132 122q-54 20 -108 21 q-34 -1 -68 -9q-87 -22 -139 -80q-57 -66 -85 -172q-19 -71 -19 -146q0 -38 5 -76q14 -116 71 -200q45 -66 133 -94q45 -15 91 -15q43 0 89 13q94 27 146 110q22 37 34 76q2 5 7 20.5t10 26.5t12 18q17 17 43 17q23 0 39.5 -14t19.5 -35v-5v-2q0 -2 -1 -6t-1 -6v-6 q-49 -207 -209 -285q-90 -47 -185 -47q-106 0 -220 58q-95 50 -154 190z" />
<glyph unicode="d" horiz-adv-x="903" d="M0 848q1 -61 8.5 -172.5t9.5 -159.5v-45v-91q-2 -88 -2 -116v-86q5 -172 97 -172h93q47 -2 69 -2h17q18 0 44 1q40 1 96 5q240 13 342 201q80 150 80 300q0 153 -84 306q-59 111 -156.5 170.5t-226.5 59.5h-201q-31 0 -46 -3.5t-44 -3.5q-4 0 -11 -0.5t-24.5 -10 t-30.5 -27.5q-12 -18 -22 -58q-8 -33 -8 -77v-19zM123 817q-2 19 -2 35q1 38 13 52q18 20 85 22h98q25 3 48 3q163 0 266 -122q81 -95 95 -254q2 -28 3 -54q0 -124 -53 -214q-84 -142 -260 -158q-32 -4 -98 -4q-44 0 -103 2q-51 2 -65 17q-10 11 -11 39q0 12 2 26 q7 76 7 123v11q-2 49 -6 133q-4 68 -3 113v19q0 71 -16 211z" />
<glyph unicode="e" horiz-adv-x="724" d="M0 866q0 -20 2 -28v-50q1 -7 2 -21.5t2 -21.5q0 -9 1 -27t1 -26q1 -8 2 -23t2 -22q0 -8 1 -24.5t1 -24.5q2 -12 2 -39q2 -16 2 -51v-78v-29q0 -8 -1 -24.5t-1 -24.5v-53v-37q-2 -16 -2 -49v-33q0 -38 9 -78q7 -32 22 -49q18 -24 49 -33q19 -8 45 -8q40 -4 54 -8 q5 0 15 -1t15 -1h15q10 2 28 2q35 0 51 2h29h37h39h123h24q25 0 41 8q27 12 47 35q15 18 17 33v12q-1 2 -2 5t-2 5q-5 13 -21 25q-19 11 -49 14q-19 0 -51 -4q-24 -4 -68 -8h-32q-16 -2 -48 -2q-12 -2 -39 -2q-7 0 -22.5 -1t-22.5 -1h-43q-24 0 -36 -2h-37q-4 0 -12 1t-11 1 q-30 9 -41 37q-1 4 -2 12t-2 12v50v170q0 20 2 30q4 19 15 27q6 6 10 6q10 2 28 2q8 2 27 2l35 4h41q16 0 24 2q7 0 21.5 1t21.5 1q5 0 15.5 1t15.5 1q7 1 21.5 2t21.5 2q23 0 33 2q21 3 45 13q20 12 25 26q5 13 2 29q-3 24 -25 37q-20 10 -39 10q-16 2 -51 2q-23 2 -46 2 l-46 -2h-39q-14 -2 -43 -2h-49q-1 0 -13 2t-18 4q-25 9 -31 35q-2 8 -2 21v39v53v116q0 15 2 23q6 27 33 37q16 4 27 4h53h51q8 0 24.5 1t24.5 1h31h35h49h92h29h28q21 3 39 21q17 20 17 47q0 13 -6 22q-13 23 -48 37q-2 1 -7.5 2t-8.5 2h-25q-6 -2 -14 -2q-4 0 -14 -1 t-15 -1h-12q-8 -1 -25 -2t-26 -2h-33q-6 0 -20 -1t-21 -1h-28q-6 -1 -14 -1t-17 0.5t-14 0.5q-20 -2 -60 -2h-49q-21 0 -31 2h-26q-49 -4 -74 -12q-29 -11 -41 -25q-14 -11 -25 -33q-7 -17 -14 -51q0 -4 -1 -13t-1 -14v-45v-2z" />
<glyph unicode="f" horiz-adv-x="720" d="M0 815q1 -8 2 -25.5t2 -25.5q0 -25 2 -37q0 -8 1 -23.5t1 -23.5q0 -15 2 -23q0 -35 2 -51v-18q0 -9 1 -28t1 -28v-22v-53q2 -17 2 -34.5t-2 -35.5v-78v-92v-18v-72q0 -29 2 -45q3 -30 15 -53q17 -31 45 -39q6 0 10 -2h12q28 6 37 30q6 12 6 37v33q0 7 -1 20.5t-1 20.5 q-1 8 -2 24.5t-2 24.5v43v41v53v76q0 17 2 27q7 18 23 26h2q8 2 26 2q15 3 29 3q5 1 16.5 2t16.5 2h43q16 0 24 2q7 0 20.5 1t20.5 1q5 0 15.5 1t15.5 1q7 1 21.5 2t21.5 2q23 0 35 2q26 3 45 14q18 9 25 29q2 8 2 22q-3 27 -27 39q-14 11 -37 11q-9 1 -26.5 2t-26.5 2 q-59 0 -90 -2h-39q-14 -2 -45 -2h-47q-2 0 -12.5 2t-16.5 4q-22 7 -29 22q-3 4 -8 29v29v71v113q0 12 2 20q7 28 33 37q12 6 27 6h55h49q16 2 51 2h29h35h49h92h31h26q19 3 34.5 15.5t19.5 30.5q2 6 2 16v8v8q-3 13 -13 23q-19 22 -47 28q-4 0 -10 3h-25q-6 -3 -14 -3 q-12 -2 -37 -2q-8 -2 -24 -2q-9 0 -26 -1t-25 -1q-25 0 -37 -2h-45h-33q-7 -1 -20 -1t-19 -1h-31h-24q-40 0 -58 2q-48 0 -73 -6q-33 -3 -58 -22q-25 -16 -35 -45q-9 -20 -12 -50q-1 -5 -2 -15.5t-2 -16.5v-62v-4z" />
<glyph unicode="g" horiz-adv-x="878" d="M57 258q-58 137 -58 269q0 186 116 362q45 67 117 106.5t146 47.5q28 3 56 3q46 0 91 -8q72 -14 124 -47q58 -37 74 -57q70 -89 94 -195q6 -18 6 -39q2 -6 2 -20q0 -57 -10 -73q-12 -20 -41 -21q-32 -1 -45.5 18t-13.5 51q-3 58 -37 129q-43 89 -132 122q-54 21 -108 21 q-34 0 -68 -9q-87 -21 -139 -80q-57 -65 -85 -172q-19 -70 -19 -146q0 -38 5 -76q14 -117 71 -200q45 -66 133 -94q44 -15 91 -15q44 0 89 13q94 27 146 110q18 32 28 55l-201 6q-23 3 -40 9q-35 14 -35 49q0 39 30 51q12 6 41 10q37 2 74 2q100 0 207 -12q56 -4 61 -51v-6 q0 -19 -2 -29q-49 -207 -209 -285q-90 -47 -185 -47q-106 0 -220 58q-95 50 -154 190z" />
<glyph unicode="h" horiz-adv-x="804" d="M0 834v8q6 131 6 133q4 65 51 72h6q11 1 21 -3q12 -4 19.5 -16.5t11 -22t8.5 -26.5v-252q0 -23 6 -47q13 -57 66 -57q62 0 186.5 1t187.5 1q61 0 64 67v41q-2 42 -2 87q0 74 6 155q4 65 51 72h6q12 1 22 -3q12 -4 19 -16.5t10.5 -22t8.5 -26.5v-313q0 -2 -1 -6.5t-1 -6.5 q0 -149 2 -227v-150v-30v-133q-6 -46 -6 -47q-12 -38 -50 -41q-38 0 -53 34q-8 28 -8 47q-6 83 -6 158q0 60 4 113q0 27 -2 39q-1 54 -16 69t-68 17q-25 1 -54 1t-64 -0.5t-54 -0.5h-172q-66 0 -66 -66v-200h-2v-123q0 -26 -6 -47q-9 -38 -49 -41q-39 0 -51 34q-7 17 -11 47 q-5 65 -5 149q0 42 1 89q-1 50 -4 149.5t-4 149.5q-2 6 -2 16q-6 85 -6 175z" />
<glyph unicode="i" horiz-adv-x="178" d="M0 270l2 430q-2 34 -2 69t2 69v6q4 90 8 133q7 65 53 70h8q24 0 35 -16q13 -19 21 -54v-729l-8 -137q0 -27 -6 -48q-12 -35 -50 -38q-39 0 -51 36q-8 19 -8 45q-4 55 -4 164z" />
<glyph unicode="j" horiz-adv-x="782" d="M7 206q20 -88 89 -145q90 -77 240 -77q24 0 49 2q202 15 291 186q53 106 53 221q0 327 -2 393q4 49 4 90q0 133 -46 165q-9 6 -17 6h-179q-25 0 -57 -7q-40 -10 -43 -45v-5q0 -31 33 -48q11 -5 24.5 -8t21.5 -3.5t25.5 -1.5t22.5 -1q62 -4 76 -19.5t16 -79.5 q2 -74 2 -221h2v-182q0 -98 -34 -176q-46 -104 -167 -140q-44 -13 -85 -13q-71 0 -131 40q-44 27 -68 90q-8 22 -8 41q0 33 24 58q8 9 18 11t15.5 0.5t19.5 -8t17 -7.5q14 -5 27 -5q36 0 63 39q10 17 10 35q0 26 -20 53q-29 42 -79 42q-6 0 -13 -1q-123 -9 -176 -112 q-25 -52 -25 -108q0 -29 7 -59z" />
<glyph unicode="k" horiz-adv-x="976" d="M0 242q0 10 2 14q0 32 4 90v27q0 83 -4 332q-2 34 -2 68.5t2 70.5v14q4 78 8 119q8 65 53 70h8q24 0 35 -16q13 -19 21 -54l-4 -189l2 -217q14 -19 47 7q90 76 190 163q2 6 11 15q115 124 229 219q30 22 54 22q18 0 34 -12q17 -14 19 -32.5t-3 -29t-18 -32.5l-186 -178 l-62 -58l-104 -90l102 -155q2 -3 14.5 -19.5t18.5 -25.5q87 -118 141 -170q47 -47 97 -60q13 -4 26 -4q23 0 45 12q9 6 13 13q7 36 34 49q25 12 56 0q32 -16 41 -45q2 -8 2 -16q0 -22 -15 -44q-53 -77 -151 -92h-29q-77 0 -156 55q-83 62 -159 168q-40 58 -113 150l-70 98 q-58 -40 -83 -82q-16 -27 -20 -64q-2 -17 -1 -33q0 -18 2 -36q0 -56 -12 -170q-6 -46 -6 -47q-13 -36 -52 -39q-39 0 -51 35q-3 12 -8 47q-2 51 -2 152zM0 242z" />
<glyph unicode="l" horiz-adv-x="761" d="M0 436v74q0 257 18 467q8 65 54 70h6q12 1 22 -3q12 -4 18.5 -17t9.5 -22t7 -28q6 -36 7 -60q0 -3 -1 -7q-1 -26 -5.5 -72.5t-4.5 -69.5q0 -36 4 -316q2 -112 2 -185q0 -109 -4 -130q49 -2 167 -2h87h37q159 0 217 -8q65 -7 70 -53v-8q1 -24 -15 -35q-18 -13 -53 -21 q-18 -7 -64 -7q-27 1 -65 3q-77 5 -113 4h-18q-11 -1 -77 -5.5t-92 -4.5q-2 0 -5 -1q-26 0 -70 5q-48 5 -84 19q-17 7 -27.5 18t-14 28t-5 29.5t-1 35.5t0.5 32q-1 45 -4 135t-4 135z" />
<glyph unicode="m" horiz-adv-x="997" d="M0 829q0 60 7 104.5t16.5 65.5t19 33t16.5 14l7 1q26 -1 43.5 -3.5t31.5 -11t22 -15t17.5 -25t14.5 -31.5t16.5 -45t21.5 -56q16 -41 58 -140t70 -171.5t49 -142.5q27 -83 61 -125q11 11 19 25t11 22t8.5 27.5t6.5 23.5q99 306 205 536q47 107 127 129q4 0 11 -0.5 t24 -13t30 -36t23 -76.5q10 -48 10 -114v-13q0 -89 -1 -268.5t-1 -268.5l-4 -148q-4 -34 -8 -47q-13 -36 -49 -39q-40 0 -52 35q-8 21 -8 47q-3 57 -3 110q0 72 5 138q0 60 1 179t1 178q0 6 1 22.5t0.5 26t-3.5 24t-10 27.5q-8 -7 -14 -14t-11 -17l-8 -16t-7.5 -18.5 t-6.5 -16.5q-41 -99 -102.5 -283.5t-85.5 -248.5q-25 -67 -31 -80q-24 -43 -57 -47h-5q-30 0 -59 36q-49 59 -100 185q-30 82 -100.5 261t-100.5 261q-4 0 -4 -15.5t-4 -15.5v-352v-4l2 -4l2 -316q0 -2 -2 -20t-4 -27q-9 -36 -49 -39h-5q-32 0 -47 33q-6 14 -10 47 q-5 68 -5 156q0 38 1 80q0 331 -2 497z" />
<glyph unicode="n" horiz-adv-x="823" d="M-1 832q0 14 3.5 50.5t12.5 63.5t31 48t54 18q27 -3 52.5 -25t40 -43.5t38.5 -62.5q66 -113 197.5 -322.5t155.5 -247.5q2 -3 7 -11t8 -12.5t9.5 -9.5t14.5 -6q7 6 10 15t3.5 15t-0.5 17t-1 15q3 205 3 342q0 68 -1 119h4q0 101 8 180q4 67 51 72h6q12 1 22 -3 q12 -4 19.5 -17t10.5 -22t8 -28l4 -170v-31l2 -14l-2 -2q0 -89 -11 -310q-8 -162 -9 -270q0 -39 2 -71q0 -15 -4 -39q-14 -48 -48 -58q-7 -2 -13 -1q-27 0 -52 30q-94 116 -160 215q-18 29 -289 463q-2 3 -9.5 18t-11 20t-12.5 13t-20 12q-5 -4 -7.5 -8.5t-3.5 -10t-1.5 -9 t0 -10.5t0.5 -9v-420l6 -227q-6 -46 -6 -47q-10 -38 -47 -41h-6q-34 0 -48 33q-6 14 -10 47q-4 38 -8 106v4q-2 48 -2 95t2 94q0 287 -2 430q-1 9 -1 23z" />
<glyph unicode="o" horiz-adv-x="974" d="M0 514q0 -166 60 -286t184 -203q108 -72 227 -72q34 0 69 6q158 26 261 156q59 76 83.5 163.5t35.5 204.5q3 32 3 64q0 172 -89 303q-66 98 -168 148q-100 50 -201 49h-4q-104 -1 -205 -54t-166 -151q-90 -132 -90 -328zM119 506q0 160 70 265t200 142q44 11 87 11 q30 0 58 -6q70 -12 130 -58.5t90 -114.5q52 -114 52 -230q0 -153 -91 -310q-40 -69 -115 -103q-57 -26 -120 -26q-20 0 -40 2q-85 10 -153 63q-122 92 -148 228q-20 97 -20 131v6z" />
<glyph unicode="p" horiz-adv-x="759" d="M0 856v8q0 15 2 42q3 35 12.5 62t33.5 50t61 24q48 3 94 3q113 0 217 -19q101 -20 168.5 -67.5t99.5 -135.5q22 -54 22 -107q0 -16 -2 -31q-8 -69 -39 -126t-88.5 -97.5t-129.5 -51.5q-6 -1 -18.5 -2t-18.5 -2l-148 -13q-7 0 -21.5 -1t-21.5 -1q-52 0 -67.5 -15.5 t-18.5 -68.5v-43v-35h-2l-2 -125q-5 -40 -8 -47q-12 -39 -49 -39h-5q-34 0 -46 35q-9 21 -9 47q-3 48 -3 96t3 95q-15 225 -15 425q0 60 1 118q-1 8 -2 22zM122 781q1 -57 1 -58v-143q4 -63 55 -66q38 -4 83 -4q29 0 61 2q80 4 141 27q66 25 90.5 62.5t24.5 111.5 q0 71 -26.5 111t-90.5 63q-106 40 -223 40q-15 0 -31 -1q-51 -3 -66 -18.5t-18 -69.5q-1 0 -1 -25v-32z" />
<glyph unicode="q" d="M14 330q30 -154 143 -262t283 -111q39 0 58.5 -18t27.5 -60q19 -88 73.5 -136.5t135.5 -51.5h4q48 0 92 23q46 23 73 61.5t37 85.5q3 15 3 30q0 32 -14 62q-23 51 -64 51h-8q-58 -9 -65 -72q-2 -13 2 -38q5 -15 5 -27q0 -31 -30 -47q-16 -8 -32 -8q-28 0 -56 26 q-40 34 -40 87q0 50 40 79q62 42 107 95.5t70 109t36.5 107t13.5 102.5q0 152 -18 235.5t-70 167.5q-71 116 -166 173q-89 53 -177 53h-12q-94 -4 -182 -51t-153 -130q-132 -167 -132 -385q0 -72 15 -151zM162 274q-43 105 -43 208q0 150 94 294q89 139 248 142h8 q105 0 188 -80q109 -109 129 -302q4 -38 4 -73q0 -146 -69 -250q-23 -45 -59 -57q-22 70 -65.5 117.5t-96.5 64.5q-39 13 -80 13q-13 0 -26 -1q-54 -6 -102.5 -42t-78.5 -95q-7 1 -12.5 3.5t-10.5 7t-8 7.5t-6.5 10.5t-4.5 10t-4.5 12t-4.5 10.5zM340 160q1 29 27 48 q24 17 54 17h7q41 -1 66.5 -25.5t27.5 -62.5q0 -33 -18 -47t-60 -14q-50 0 -78 23q-26 21 -26 54v7z" />
<glyph unicode="r" horiz-adv-x="952" d="M0 856v8q0 16 2 42q3 36 12.5 62.5t33.5 49.5t61 24q48 3 94 3q113 0 217 -19q101 -20 168.5 -67.5t99.5 -135.5q22 -54 22 -107q0 -15 -2 -31q-8 -69 -39 -126t-88.5 -97.5t-129.5 -51.5q-6 -1 -18.5 -2t-18.5 -2l32 -46q90 -122 142 -170q49 -49 96 -61q13 -3 25 -3 q26 0 47 13q3 1 5.5 3t3.5 3.5t1.5 2.5t1.5 2q7 37 35 51q26 13 55 0q32 -16 41 -45q3 -10 3 -19q0 -21 -15 -41q-52 -80 -152 -92q-4 0 -13 -1t-13 -1q-81 0 -158 57q-85 63 -160 168q-33 47 -110 150l-15 16q-7 0 -21.5 -1t-21.5 -1q-52 0 -67.5 -15.5t-18.5 -68.5v-43 v-35h-2l-2 -125q-5 -40 -8 -47q-12 -39 -49 -39h-5q-34 0 -46 35q-9 21 -9 47q-3 48 -3 96t3 95q-15 225 -15 425q0 60 1 118q-1 8 -2 22zM122 781q0 -57 1 -58v-143q4 -63 55 -66q38 -4 83 -4q29 0 61 2q80 4 141 27q66 25 90.5 62.5t24.5 111.5q0 71 -26.5 111t-90.5 63 q-106 40 -223 40q-16 0 -31 -1q-51 -3 -66 -18.5t-18 -69.5q-1 0 -1 -25v-32z" />
<glyph unicode="s" horiz-adv-x="786" d="M0 340q0 -4 -1 -11q1 -15 3 -43q4 -40 14.5 -78t41.5 -84.5t77 -80.5q77 -45 82 -47q99 -49 191 -49q118 0 225 80q81 61 99 155q5 25 4 50q0 68 -35 132q-48 88 -146 130q-43 20 -199 67q-96 27 -141 60q-74 51 -74 137q0 91 78 135q58 33 117 33q8 0 18 -1 q68 -6 124 -37q54 -30 88 -84q30 -48 30 -98v-12q-1 -10 -1 -21q0 -25 5 -55q7 -59 52 -59h7q25 1 38.5 18.5t13.5 40.5q2 26 2 51q0 35 -4 67q-7 54 -23 92t-36 69t-41 49t-38.5 30.5t-28.5 17.5l-12 5q-73 47 -180 47q-38 0 -80 -6q-97 -13 -160 -74.5t-83 -160.5 q-7 -31 -7 -60q0 -55 24 -105q36 -76 118 -126q92 -59 176 -72q112 -21 211 -88q59 -38 65 -110q1 -7 0 -13q0 -63 -47 -100q-81 -63 -165 -64q-56 0 -113 29q-40 20 -66 37t-53 43t-39 61q-10 30 -10 66v12q1 14 1 27q0 51 -13 78q-17 33 -47 33h-5q-33 -3 -43 -33 q-12 -36 -12 -58q0 -8 -2 -22z" />
<glyph unicode="t" horiz-adv-x="878" d="M0 993q0 27 26.5 37t75.5 12q53 2 318 2v3q159 0 315 -3q42 0 62.5 -8t27.5 -30q2 -5 2 -12q1 -6 -1 -16q-2 -14 -8 -24t-22.5 -18.5t-41.5 -9.5h-205q-7 1 -13 1q-56 0 -63 -57q-2 -27 -2 -77q-4 -117 -4 -143t3.5 -93t4.5 -143v-314q-6 -46 -6 -47q-12 -38 -49 -41 q-38 0 -53 35q-9 32 -9 47q-6 91 -6 187v-2q0 358 -2 538q0 71 -12 85q-10 11 -59 12q-11 0 -23 -1h-182q-3 0 -8 1t-18 6t-22.5 12.5t-17.5 23.5t-8 37z" />
<glyph unicode="u" horiz-adv-x="794" d="M0 404v49q0 73 4 137q2 43 3.5 178t8.5 209q4 65 52 70h7q18 0 29 -9q14 -11 19 -24t10 -37l-6 -246q-2 -94 -2 -282q0 -72 2 -107q5 -108 48.5 -165t131.5 -64q19 -2 37 -2q80 -1 140 33q72 40 102 135q26 80 32 166q4 53 5 121q0 42 -2 89q-3 99 -3 148v22q0 7 -0.5 40 t1 58t6.5 55.5t19 48.5t36 20h6q16 0 28 -9q14 -11 19 -24.5t10 -36.5v-174q0 -284 -4 -365q-5 -105 -31 -188t-87 -150q-89 -97 -243 -110q-21 -2 -41 -2q-127 0 -216 71q-81 65 -101 160q-18 83 -20 185z" />
<glyph unicode="v" horiz-adv-x="823" d="M4 958q-4 17 -4 30q0 38 33 52q14 6 25 6q12 0 22 -7q18 -13 35 -44l55 -188h2q77 -266 219 -596q58 147 72 190q86 256 139 418l51 174q6 10 10 16t11 14.5t13 12.5t14 7q6 2 13 2h4q10 -1 21 -5q33 -14 33 -55q0 -14 -4 -31q-41 -172 -92 -311q-9 -22 -14 -29 q-33 -96 -96 -276l-91 -260q-2 -5 -6.5 -19.5t-7 -21t-9 -17.5t-12.5 -16t-17 -9.5t-24 -4.5q-11 0 -19.5 2.5t-16 8.5l-12.5 10t-10.5 14.5t-7.5 15t-7.5 17.5t-6.5 16q-115 245 -247 647q-6 10 -9 20l-18 58q-35 133 -41 159z" />
<glyph unicode="w" horiz-adv-x="1089" d="M2 961q-2 13 -2 24q0 45 35 57q13 5 23 5q14 0 24 -9q17 -15 33 -47l43 -182q66 -252 80 -332q9 -58 32 -110q50 85 74 211q13 56 31 115t44.5 137.5t37.5 113.5q9 26 14 35q25 37 55 37v1q29 0 49 -38q11 -20 29 -80l123 -493q1 -3 2 -10.5t2.5 -12.5t3.5 -11t5 -11 t8 -9q21 -8 26 19q9 38 50 198.5t61 247.5l39 166q15 32 33 47t47 4q34 -14 34 -58q0 -11 -2 -24q-15 -92 -39 -188q-21 -96 -47 -198t-63.5 -240t-52.5 -197q-2 -6 -6 -23t-6 -25t-8 -22t-12.5 -20.5t-18 -12.5t-25.5 -6h-5q-15 0 -25 6q-12 6 -20.5 18.5t-12.5 24t-9 29.5 t-8 27q-34 103 -79 298t-60 251q0 2 -2 10.5t-4 12.5t-8 11t-15 13q-16 -61 -50 -180.5t-50 -180.5q-31 -131 -70 -249q0 -1 -4 -15.5t-8 -21.5q-22 -49 -59 -49h-3q-42 3 -53 49q-7 24 -20.5 73t-20.5 74q-23 87 -57.5 247.5t-48.5 217.5q-20 62 -31 115l-6 16h2 q-27 133 -29 144z" />
<glyph unicode="x" horiz-adv-x="890" d="M14 1028q12 12 24 16q6 2 12 3q6 0 14 -3q14 -5 22 -9t25 -15l116 -137q168 -194 172 -199q15 -16 30 -13t28 19l110 144l133 182q20 16 30.5 22.5t28.5 6.5t34 -15q16 -14 16 -35q0 -22 -18 -51q-40 -66 -99 -145v-2q-84 -112 -145 -191q-24 -28 -24 -56q0 -27 22 -56 l104 -138q52 -62 115 -149q25 -41 37 -57l20 -31q16 -28 16.5 -50.5t-16.5 -39.5q-15 -15 -33 -15h-1q-18 0 -30 8t-30 23l-55 76q-6 9 -19 26t-16 21l-86 119q-30 39 -80 100q-17 20 -34 20q-18 0 -36 -24l-26 -37q-3 -8 -13 -22.5t-12 -18.5l-198 -252q-18 -14 -31 -21 t-31 -6.5t-33 15.5q-16 16 -16 36q0 23 20 54l43 62l2 2q31 44 105 135q64 84 108 157q21 30 20 56t-28 53q-93 103 -172 197q-16 20 -26 30q-1 1 -35 41h4q-50 63 -59 76q-23 30 -23 54q0 19 14 34z" />
<glyph unicode="y" horiz-adv-x="872" d="M16 942q-15 29 -15 51q0 24 17 39q16 14 34 14h2q18 -1 29 -8.5t30 -23.5l96 -142l2 2q72 -109 172 -256q15 -23 30 -23t29 21q97 139 158 230h2l109 164q14 12 22 18t21 12t24.5 3t24.5 -13q18 -16 18 -39q0 -22 -16 -49q-71 -127 -166 -252q-53 -79 -137 -198 q-24 -30 -33 -68l2 -2l16 -332q0 -33 -4 -49q-9 -39 -49 -45h-6q-36 0 -51 33q-9 23 -12 49q-10 90 -11 102q-2 16 -2 47q-4 74 -4 111q0 13 -1 37t-1 35q0 44 -31 90l-233 338z" />
<glyph unicode="z" horiz-adv-x="892" d="M8 61q6 -13 15.5 -21t24.5 -11t23.5 -3.5t28.5 -0.5h355h278q83 0 88 67q-1 36 -59 48q-41 9 -82 9q-16 0 -33 -1l-57 -5h-305q-8 1 -21.5 0t-22 -0.5t-19.5 4t-19 11.5q0 16 2 18q252 332 381 481l223 261q10 12 12.5 15.5t10 15t9 18t1.5 17t-4 20.5q-7 19 -23 29 t-30 12t-37 2h-316q-45 0 -134 -1.5t-134 -1.5q-86 0 -96 -61l1 -15q15 -46 137 -46q20 0 44 1q7 0 14 1q109 2 326 2q33 0 41 -25l-127 -151q-174 -217 -471 -592q-11 -13 -17 -22.5t-12 -22.5q-5 -11 -4 -22q0 -15 8 -30z" />
<glyph unicode="{" />
<glyph unicode="}" />
<glyph unicode="&#x2000;" horiz-adv-x="682" />
<glyph unicode="&#x2001;" horiz-adv-x="1365" />
<glyph unicode="&#x2002;" horiz-adv-x="682" />
<glyph unicode="&#x2003;" horiz-adv-x="1365" />
<glyph unicode="&#x2004;" horiz-adv-x="455" />
<glyph unicode="&#x2005;" horiz-adv-x="341" />
<glyph unicode="&#x2006;" horiz-adv-x="227" />
<glyph unicode="&#x2007;" horiz-adv-x="227" />
<glyph unicode="&#x2008;" horiz-adv-x="170" />
<glyph unicode="&#x2009;" horiz-adv-x="273" />
<glyph unicode="&#x200a;" horiz-adv-x="75" />
<glyph unicode="&#x202f;" horiz-adv-x="273" />
<glyph unicode="&#x205f;" horiz-adv-x="341" />
<glyph unicode="&#x25fc;" horiz-adv-x="1044" d="M0 0v1044h1044v-1044h-1044z" />
</font>
</defs>
</svg>
